<svg width="24" height="24" viewBox="0 0 24 24" fill="none" xmlns="http://www.w3.org/2000/svg">
<path d="M18.2774 18.3051C16.5402 20.0423 12.0914 18.41 8.34069 14.6593C4.58998 10.9086 2.95768 6.4598 4.69485 4.72262L5.83864 3.57883C6.62826 2.78921 7.92937 2.81008 8.74474 3.62545L10.5164 5.39708C11.3318 6.21246 11.3526 7.51356 10.563 8.30319L10.3173 8.54886C9.891 8.97519 9.84929 9.66295 10.2454 10.143C10.6275 10.606 11.0395 11.0672 11.4861 11.5139C11.9328 11.9605 12.394 12.3725 12.857 12.7546C13.3371 13.1507 14.0248 13.109 14.4511 12.6827L14.6968 12.437C15.4864 11.6474 16.7875 11.6682 17.6029 12.4836L19.3745 14.2553C20.1899 15.0706 20.2108 16.3717 19.4212 17.1614L18.2774 18.3051Z" fill="#066938"/>
</svg>
