<svg xmlns="http://www.w3.org/2000/svg" xmlns:xlink="http://www.w3.org/1999/xlink" viewBox="0 0 179.15 107.49"><defs><clipPath id="clip-path"><path class="cls-3" d="M50.11 41.34l45.51 6.11 2.89-36.35L53 4.98l-2.89 36.36z"/></clipPath><clipPath id="clip-path-2"><path class="cls-3" d="M43.05 36.61l45.85 6.16 2.05-25.78-45.85-6.16-2.05 25.78z"/></clipPath><clipPath id="clip-path-3"><path class="cls-3" d="M52.62 44.23l40.99 5.5 1.99-24.98-40.99-5.51-1.99 24.99z"/></clipPath><clipPath id="clip-path-4"><path class="cls-3" d="M93.84 70.74l48.86 1.07-1.57-31.26-48.85-1.08 1.56 31.27z"/></clipPath><clipPath id="clip-path-5"><path class="cls-3" d="M0 0h179.15v107.49H0z"/></clipPath><clipPath id="clip-path-7"><path class="cls-3" d="M3.56 3.13h172.03v102.18H3.56z"/></clipPath><clipPath id="clip-path-8"><path class="cls-3" d="M52.54 16.82h1.21A83.23 83.23 0 0167 19.43a69.49 69.49 0 0112 5.16A38.94 38.94 0 0188.73 32 69.58 69.58 0 0196 41.67l.12-.3c-4.31-5.81-6.92-11.1-13.22-17.11C75.44 17.17 66 13.9 61 12.56a70.61 70.61 0 00-7.72-1.79z"/></clipPath><clipPath id="clip-path-9"><path class="cls-3" d="M50.11 4.98h48.4v42.47h-48.4z"/></clipPath><clipPath id="clip-path-10"><path class="cls-3" d="M95.62 47.45l-45.51-6.11L53 4.98l45.51 6.11-2.89 36.36z"/></clipPath><clipPath id="clip-path-11"><path class="cls-3" d="M45.57 16.84l-.94 8.07a56.77 56.77 0 0123.72 2 57.53 57.53 0 0119.42 9.92l1.61-4.11c-.22-.25-.44-.48-.65-.7A38.94 38.94 0 0079 24.59a69.49 69.49 0 00-12-5.16 83.23 83.23 0 00-13.23-2.57c-1-.05-2.46-.08-4.08-.08-1.3 0-2.71 0-4.1.06"/></clipPath><clipPath id="clip-path-12"><path class="cls-3" d="M43.05 10.83h47.9v31.93h-47.9z"/></clipPath><clipPath id="clip-path-13"><path class="cls-3" d="M88.9 42.76L43.05 36.6l2.05-25.77 45.85 6.16-2.05 25.77z"/></clipPath><clipPath id="clip-path-14"><path class="cls-3" d="M40.25 17.19a80 80 0 00-15.14 3.64C20 22.7 12.27 26.1 6.85 30.13l3.51 10.18C13.79 37.78 24.91 29.93 35 27a57 57 0 0133.35-.07 57.41 57.41 0 0119.9 10.3A61.74 61.74 0 0195 44.1l1-2.43A69.58 69.58 0 0088.73 32 38.94 38.94 0 0079 24.59a69.49 69.49 0 00-12-5.16 83.23 83.23 0 00-13.23-2.57c-1-.05-2.46-.08-4.08-.08a90.69 90.69 0 00-9.42.41"/></clipPath><clipPath id="clip-path-15"><path class="cls-3" d="M54.19 31.56c1.17-.11 2.35-.19 3.56-.23 10.71-.4 21.2 1.91 27.61 6.13a45.69 45.69 0 018.1 7L94 43a58 58 0 00-5.78-5.77 57.41 57.41 0 00-19.9-10.3A59.23 59.23 0 0055 24.54z"/></clipPath><clipPath id="clip-path-16"><path class="cls-3" d="M52.62 19.24H95.6v30.49H52.62z"/></clipPath><clipPath id="clip-path-17"><path class="cls-3" d="M93.61 49.74l-40.99-5.51 1.99-24.99 40.99 5.51-1.99 24.99z"/></clipPath><clipPath id="clip-path-18"><path class="cls-3" d="M35 27c-10.09 3-21.21 10.81-24.64 13.34q1.55 4.48 3.1 9c3.2-2.94 20.59-17.08 44.29-18 10.71-.4 21.2 1.91 27.61 6.13a47.47 47.47 0 019.17 8.15l.55-1.43a62.26 62.26 0 00-6.83-7 57.41 57.41 0 00-19.9-10.3 58.41 58.41 0 00-16.52-2.46A59.29 59.29 0 0035 27"/></clipPath><clipPath id="clip-path-19"><path class="cls-3" d="M126.22 49.87c-19.46 6.21-23.51-.76-25.87-3.32-1.29-1.41-3.47-4.08-5-6.12l-1.58 4.41c1.47 1.49 3.51 4.1 4 4.75 7 9 15.81 21.15 30.48 21 12.14-.14 18-2.91 21.28-4.14a67 67 0 0026-18.16c0-.12-.84-4.31-1.89-9.6-.7-3.52-1.5-7.53-2.21-11.15-1.13-5.71-2.06-10.42-2.07-10.66-15 18.31-32.12 29.48-43.2 33"/></clipPath><clipPath id="clip-path-20"><path class="cls-3" d="M93.84 44.89c1.47 1.5 3.46 4.06 4 4.7 7 9 15.81 21.15 30.48 21a64.36 64.36 0 0010.15-.86l2.7-27.22a65.57 65.57 0 01-14.91 7.38c-19.46 6.21-23.51-.76-25.87-3.32-1.27-1.38-3.39-4-4.9-6z"/></clipPath><clipPath id="clip-path-21"><path class="cls-3" d="M92.28 39.47h50.42v32.35H92.28z"/></clipPath><clipPath id="clip-path-22"><path class="cls-3" d="M92.28 39.47l48.85 1.07 1.57 31.27-48.86-1.07-1.56-31.27z"/></clipPath><linearGradient id="Dégradé_sans_nom_6" x1="-410" y1="-2578.65" x2="-408.31" y2="-2578.65" gradientTransform="matrix(-18.89 -2.54 1.38 -17.31 -4102.69 -45653.78)" gradientUnits="userSpaceOnUse"><stop offset="0" stop-color="#fff"/><stop offset=".1" stop-color="#f8f8f8"/><stop offset=".24" stop-color="#e5e5e5"/><stop offset=".4" stop-color="#c6c6c5"/><stop offset=".59" stop-color="#9a9a99"/><stop offset=".8" stop-color="#626261"/><stop offset="1" stop-color="#222221"/></linearGradient><linearGradient id="Dégradé_sans_nom_6-2" x1="-409.86" y1="-2578.69" x2="-408.18" y2="-2578.69" gradientTransform="matrix(-18.89 -2.54 1.38 -17.31 -4106.43 -45651.44)" xlink:href="#Dégradé_sans_nom_6"/><linearGradient id="Dégradé_sans_nom_6-3" x1="-414.78" y1="-2599.93" x2="-413.09" y2="-2599.93" gradientTransform="matrix(-16.43 -2.21 1.2 -15.06 -3611.68 -40021.74)" xlink:href="#Dégradé_sans_nom_6"/><linearGradient id="Dégradé_sans_nom_8" x1="-366.34" y1="-2330.37" x2="-364.65" y2="-2330.37" gradientTransform="matrix(25.32 .56 1.17 23.36 12099.33 54688.49)" gradientUnits="userSpaceOnUse"><stop offset="0" stop-color="#fff"/><stop offset=".13" stop-color="#fbfbfb"/><stop offset=".26" stop-color="#f0f0f0"/><stop offset=".38" stop-color="#dddddc"/><stop offset=".5" stop-color="#c2c2c1"/><stop offset=".62" stop-color="#9f9f9e"/><stop offset=".75" stop-color="#747474"/><stop offset=".86" stop-color="#434342"/><stop offset=".93" stop-color="#222221"/><stop offset="1" stop-color="#222221"/></linearGradient><linearGradient id="Dégradé_sans_nom" x1="-410" y1="-2578.65" x2="-408.31" y2="-2578.65" gradientTransform="matrix(-18.89 -2.54 1.38 -17.31 -4102.69 -45653.78)" gradientUnits="userSpaceOnUse"><stop offset="0" stop-color="#6f6228"/><stop offset=".29" stop-color="#685d2d"/><stop offset=".71" stop-color="#554f3a"/><stop offset="1" stop-color="#444346"/></linearGradient><linearGradient id="Dégradé_sans_nom_3" x1="-409.86" y1="-2578.69" x2="-408.18" y2="-2578.69" gradientTransform="matrix(-18.89 -2.54 1.38 -17.31 -4106.43 -45651.45)" gradientUnits="userSpaceOnUse"><stop offset="0" stop-color="#6f6228"/><stop offset=".21" stop-color="#755b28"/><stop offset=".52" stop-color="#854728"/><stop offset=".9" stop-color="#9f2728"/><stop offset="1" stop-color="#a71d28"/></linearGradient><linearGradient id="Dégradé_sans_nom_5" x1="-414.78" y1="-2599.93" x2="-413.09" y2="-2599.93" gradientTransform="matrix(-16.43 -2.21 1.2 -15.06 -3611.68 -40021.74)" gradientUnits="userSpaceOnUse"><stop offset="0" stop-color="#6f6228"/><stop offset=".14" stop-color="#766829"/><stop offset=".34" stop-color="#89772c"/><stop offset=".58" stop-color="#a89130"/><stop offset=".84" stop-color="#d4b436"/><stop offset="1" stop-color="#f1cc3a"/></linearGradient><linearGradient id="Dégradé_sans_nom_7" x1="-366.34" y1="-2330.37" x2="-364.65" y2="-2330.37" gradientTransform="matrix(25.32 .56 1.17 23.36 12099.33 54688.49)" gradientUnits="userSpaceOnUse"><stop offset="0" stop-color="#6f6228"/><stop offset=".29" stop-color="#6b5f2b"/><stop offset=".57" stop-color="#605733"/><stop offset=".84" stop-color="#4c4940"/><stop offset=".93" stop-color="#444346"/><stop offset="1" stop-color="#444346"/></linearGradient><mask id="mask" x="46.76" y="-1.45" width="55.09" height="55.34" maskUnits="userSpaceOnUse"><path d="M50.11 4.98h48.4v42.47h-48.4z"/><g clip-path="url(#clip-path)"><path fill="url(#Dégradé_sans_nom_6)" d="M101.86 5.43L50.62-1.45l-3.86 48.46L98 53.89l3.86-48.46z"/></g></mask><mask id="mask-2" x="40.54" y="4.47" width="52.93" height="44.67" maskUnits="userSpaceOnUse"><path d="M43.05 10.83h47.9v31.93h-47.9z"/><g clip-path="url(#clip-path-2)"><path fill="url(#Dégradé_sans_nom_6-2)" d="M93.47 11.17l-49.91-6.7-3.02 37.96 49.91 6.7 3.02-37.96z"/></g></mask><mask id="mask-3" x="50.22" y="13.53" width="47.78" height="41.92" maskUnits="userSpaceOnUse"><path d="M52.62 19.24H95.6v30.49H52.62z"/><g clip-path="url(#clip-path-3)"><path fill="url(#Dégradé_sans_nom_6-3)" d="M98 19.56l-44.92-6.03-2.86 35.88 44.92 6.04L98 19.56z"/></g></mask><mask id="mask-4" x="90.6" y="38.32" width="53.77" height="34.64" maskUnits="userSpaceOnUse"><path d="M92.28 39.47h50.42v32.35H92.28z"/><g clip-path="url(#clip-path-4)"><path fill="url(#Dégradé_sans_nom_8)" d="M92.28 71.81l52.09 1.15-1.67-33.49-52.1-1.15 1.68 33.49z"/></g></mask><style>.cls-3{fill:none}.cls-11{clip-path:url(#clip-path-5)}.cls-12{clip-path:url(#clip-path-7)}.cls-27{fill:#706228}</style></defs><g id="Calque_2" data-name="Calque 2"><g class="cls-11" id="Calque_1-2" data-name="Calque 1"><g class="cls-11"><g class="cls-12" fill-rule="evenodd"><path d="M88.73 32A64 64 0 0195 40.22v-.26c-3.74-5.26-6.41-10.17-12.2-15.7C75.44 17.17 66 13.9 61 12.56c-32.36-9.44-57.27 8-57.41 8.07l3.29 9.51c5.43-4 13.1-7.44 18.26-9.31a79.24 79.24 0 0115.14-3.64 104.69 104.69 0 0113.5-.33A83.23 83.23 0 0167 19.43a69.49 69.49 0 0112 5.16A38.94 38.94 0 0188.73 32" fill="#444346"/><path d="M94.35 43.34l.65-3.12A64 64 0 0088.73 32 38.94 38.94 0 0079 24.59a69.49 69.49 0 00-12-5.16 83.23 83.23 0 00-13.23-2.57 104.69 104.69 0 00-13.5.33 79.24 79.24 0 00-15.14 3.64C20 22.7 12.28 26.1 6.85 30.14l3.51 10.17C13.79 37.78 24.91 29.93 35 27a57.07 57.07 0 0133.35-.07 57.41 57.41 0 0119.9 10.3 58.07 58.07 0 016.1 6.14" fill="#a71d28"/><path d="M94 45l.36-1.69a57.14 57.14 0 00-6.1-6.14 57.41 57.41 0 00-19.9-10.3A57.07 57.07 0 0035 27c-10.09 3-21.21 10.81-24.64 13.34q1.55 4.48 3.1 9c3.2-2.94 20.59-17.08 44.29-18 10.71-.4 21.2 1.91 27.61 6.13A45.59 45.59 0 0194 45" fill="#f1cc3a"/></g><g clip-path="url(#clip-path-8)"><g clip-path="url(#clip-path-9)"><g clip-path="url(#clip-path-10)" mask="url(#mask)"><path fill="url(#Dégradé_sans_nom)" d="M101.86 5.43L50.62-1.45 46.77 47 98 53.89l3.86-48.46z"/></g></g></g><g clip-path="url(#clip-path-11)"><g clip-path="url(#clip-path-12)"><g clip-path="url(#clip-path-13)" mask="url(#mask-2)"><path fill="url(#Dégradé_sans_nom_3)" d="M93.47 11.17L43.56 4.46l-3.02 37.97 49.91 6.7 3.02-37.96z"/></g></g></g><g clip-path="url(#clip-path-14)"><path class="cls-27" transform="rotate(-73.99 91.785 37.442)" d="M83.69 32.08h16.18V42.8H83.69z"/></g><g clip-path="url(#clip-path-15)"><g clip-path="url(#clip-path-16)"><g clip-path="url(#clip-path-17)" mask="url(#mask-3)"><path fill="url(#Dégradé_sans_nom_5)" d="M98 19.57l-44.92-6.04-2.86 35.88 44.92 6.04L98 19.57z"/></g></g></g><g clip-path="url(#clip-path-18)"><path class="cls-27" d="M91.87 37.19h6.14v10.46h-6.14z"/></g><g clip-path="url(#clip-path-19)"><path fill="#fff" d="M112.47 28.65L173.6 14.6l10.74 46.73-61.14 14.05-10.73-46.73z"/><path fill="#395c36" d="M95.63 33.92l44.13.76 7.86 34.18-48.86 9.89-3.13-44.83z"/><path d="M150.38 50c-2.82-1.92-7.25-1.76-10.73.27s-4.52 5.55-1.75 8.12 8.19 2.56 11.61-.12a7.39 7.39 0 002.39-2.88c-1.59 2.6-5.76 4.07-8.9 3s-4-3.93-2.13-6.17a8.73 8.73 0 018.4-2.62 5.62 5.62 0 011.11.4m1 2.62a60.29 60.29 0 01-7.35.23 57.15 57.15 0 005.39 3.15c-.47-1.72-.9-3.44-1.31-5.18q-1.61 2.69-3.4 5.3a69.24 69.24 0 006.67-3.5" fill="#b2193a"/><path d="M173.7 38.67c-.7-3.53-1.49-7.53-2.21-11.15-1.14-5.71-2.06-10.43-2.07-10.66-15 18.31-32.12 29.48-43.19 33-19.47 6.21-23.53-.76-25.88-3.32-1.29-1.4-3 2.39-2.55 3 7 9 15.81 21.16 30.48 21 12.14-.14 18-2.91 21.28-4.13a67 67 0 0026-18.16c.03-.1-.81-4.25-1.86-9.58z" stroke="#221e20" stroke-miterlimit="10" stroke-width=".38" fill="none"/></g><g clip-path="url(#clip-path-20)"><g clip-path="url(#clip-path-21)"><g clip-path="url(#clip-path-22)" mask="url(#mask-4)"><path fill="url(#Dégradé_sans_nom_7)" d="M92.28 71.81l52.09 1.15-1.67-33.49-52.1-1.14 1.68 33.48z"/></g></g></g><g class="cls-12"><path d="M136 99.21h-4.5v.62h1.86v5.37h.75v-5.37H136zm-6.9 5.44h-.76v.55h2.27v-.55h-.76v-4.9h.73v-.54h-2.18v.54h.73zm-2-5.44h-3.32v6h3.45v-.62h-2.75v-2.09h2.3v-.62h-2.3v-2h2.51zm-5.71 4.32c0 .68-.43 1-1.54 1h-.6v-2.09h.75c.94 0 1.49.38 1.49 1m-.15-2.77c0 .71-.48 1.11-1.47 1.11h-.52v-2h.52c1 0 1.47.39 1.47.93m.78 0c0-.93-.61-1.53-2.25-1.53h-1.28v6h1.36c1.65 0 2.35-.68 2.35-1.62a1.44 1.44 0 00-1.26-1.45 1.34 1.34 0 001.08-1.38m-6.06.19c0 .8-.49 1.22-1.6 1.22h-.47v-2.31h.52c1.07 0 1.55.34 1.55 1.1m1.23 4.27l-1.6-2.61a1.67 1.67 0 001.17-1.7c0-1.11-.72-1.68-2.35-1.68h-1.27v6h.75v-2.42h.94l1.43 2.44zm-6.94-2.49h-1.75l.88-2.51zm1.65 2.49l-2.24-6h-.59l-2.24 6h.77l.66-1.92h2.14l.66 1.92zm-6.27-6H105v4.6l-3-4.6h-.71v6h.71v-4.63l3 4.63h.7zm-6.12 0h-3.34v6h3.45l.06-.62H97v-2.09h2.3v-.62H97v-2h2.52zm-5.22 0h-.75l-2 4.92-2-4.92h-.82v6h.73v-4.28l1.73 4.28h.66l1.72-4.28v4.28h.73zm-7.49 0h-.76l-2 4.92-2-4.92h-.83v6H82v-4.28l1.73 4.28h.65l1.72-4.28v4.28h.74zm-8.49 3.5h-1.77l.88-2.51zm1.69 2.49l-2.24-6h-.6l-2.24 6h.78l.65-1.92h2.15l.66 1.92zM74 99.56a2 2 0 00-1.41-.46 1.56 1.56 0 00-1.75 1.42c0 .83.37 1.23 1.17 1.76l.53.34c.67.44.93.69.93 1.21s-.37.79-1.17.79a2 2 0 01-1.32-.55l-.27.71a2.33 2.33 0 001.61.53c1.22 0 1.94-.68 1.94-1.58a2 2 0 00-1.21-1.73l-.53-.32c-.72-.45-.93-.72-.93-1.19s.33-.71 1-.71a1.7 1.7 0 011.11.41zm-4.73-.35h-.73v3.53c0 1.39-.47 1.91-1.46 1.91s-1.5-.55-1.5-1.91v-3.53h-.78v3.52c0 1.81.73 2.58 2.21 2.58s2.24-.87 2.24-2.58zm-6 0h-3.86v.62h2.89l-3 4.88v.47h4.18l.05-.62h-3.29l3-4.88zm-7.44 0h-3.35v6h3.44l.06-.62h-2.75v-2.09h2.3v-.62h-2.3v-2h2.51zm-5.21 0h-.75v2.66h-3v-2.66h-.76v6h.76v-2.71h3v2.71h.75zm-10.23 3c0 2.14 1 3.1 2.61 3.1a2.37 2.37 0 001.68-.56l-.22-.56a2 2 0 01-1.34.46c-1.21 0-1.92-.7-1.92-2.5s.94-2.4 2-2.4a1.78 1.78 0 011.25.47l.27-.59a2.1 2.1 0 00-1.52-.53 2.78 2.78 0 00-2.82 3.11m-1.42-2.65a2.09 2.09 0 00-1.42-.46 1.55 1.55 0 00-1.74 1.42c0 .83.36 1.23 1.17 1.76l.53.34c.66.44.92.69.92 1.21s-.37.79-1.18.79a2 2 0 01-1.31-.55l-.27.71a2.35 2.35 0 001.61.53c1.22 0 1.94-.68 1.94-1.58A2 2 0 0038 102l-.52-.32c-.74-.45-.93-.72-.93-1.19s.33-.71 1-.71a1.73 1.73 0 011.11.41zm-4.15-.35h-4.55v.62h1.85v5.37h.76v-5.37h1.86zm-5.75 0h-.76v3.53c0 1.39-.47 1.91-1.46 1.91s-1.51-.55-1.51-1.91v-3.53h-.75v3.52c0 1.81.73 2.58 2.21 2.58s2.24-.87 2.24-2.58zm-6 0h-3.38v6h3.45l.05-.62h-2.75v-2.09h2.31v-.62h-2.31v-2h2.51zm-8.2.65c1.61 0 2.48.57 2.48 2.21s-.91 2.48-2.59 2.48h-.36v-4.69zm-.11 5.34c2.14 0 3.4-1 3.4-3.13s-1-2.86-3.29-2.86h-1.3v6z" fill="#a71d28"/><path d="M104.32 85.55c.2-2.21 1.06-3.3 2.52-3.3s2 1.13 2 2.37a3.92 3.92 0 01-.11.93zm6.11 1.06a8.38 8.38 0 00.24-1.79 3.38 3.38 0 00-3.6-3.72c-2.37 0-4.68 1.93-4.68 5.78s2.11 5.38 4.59 5.38 3.76-1.18 3.76-1.73a1 1 0 00-.29-.64 3.91 3.91 0 01-2.72 1c-2.13 0-3.41-1.51-3.43-4.32zm-13 3.26a3.39 3.39 0 01-2.56.95c-1.66 0-2.92-1.22-2.92-4.14s1.46-4.34 3.36-4.34a2.89 2.89 0 012.12.8zm1.8-14l-2.61.27c-.53 0-.82.31-.82.69a.92.92 0 000 .17l1.61.23v4.11a6.34 6.34 0 00-1.89-.29c-2.66 0-5.45 1.75-5.45 5.89 0 4 2.15 5.27 4.25 5.27a3.61 3.61 0 003.16-1.53h.07v1.39l2.48-.26c.53 0 .82-.31.82-.69a.65.65 0 000-.18l-1.61-.22zM87 85.06c0-2.49-1.26-4-3.43-4A4.73 4.73 0 0080 82.72h-.07l.07-1.48-2.61.26c-.53 0-.82.31-.82.69a.79.79 0 000 .17l1.61.23v8.25l-.81.27c-.43.13-.69.33-.69.72a.9.9 0 000 .16h4.69a1 1 0 00.23-.57c0-.18-.1-.25-.32-.29L80 90.84v-7.17a4.23 4.23 0 012.83-1.08 2.28 2.28 0 012.39 2.58v5.67l-.82.27c-.42.13-.69.33-.69.72a.62.62 0 000 .16h4.69a1.1 1.1 0 00.22-.57c0-.18-.09-.25-.31-.29L87 90.84zm-14.88 2.11v2.54a3 3 0 01-2.21 1.15 1.49 1.49 0 01-1.59-1.64c0-1.26 1.19-1.85 3.21-2zm1.8-2.33c0-2.43-1.08-3.74-3.41-3.74-1.81 0-3.7 1.06-3.7 2.41 0 .64.4 1 1.09 1h.47a8.87 8.87 0 01.5-1.94 3.94 3.94 0 011.31-.22c1.44 0 1.94.92 1.94 2.83v1.06h-.59c-2.5 0-5.16.93-5.16 3.25a2.67 2.67 0 002.82 2.84 3.43 3.43 0 003-1.6h.05A1.52 1.52 0 0074 92.19c1.22 0 1.73-.69 1.73-.91a1.46 1.46 0 00-.2-.62 1.08 1.08 0 01-.8.29c-.42 0-.77-.29-.77-1.26zm-10.44.22c0-2.56-1.31-4-3.41-4a5 5 0 00-3.79 1.77 3 3 0 00-2.83-1.77 4.63 4.63 0 00-3.54 1.62h-.07l.16-1.44-2.61.26c-.53 0-.82.31-.82.69a.54.54 0 000 .17l1.61.23v8.25l-.82.27c-.42.13-.68.33-.68.72a.9.9 0 000 .16h4.69a1 1 0 00.22-.57c0-.18-.08-.25-.31-.29L50 90.84v-7.17a4 4 0 012.84-1.08c1.11 0 2.13.57 2.13 2.58v5.67l-.83.27c-.42.13-.68.33-.68.72a.9.9 0 000 .16h4.69a1 1 0 00.22-.57c0-.18-.09-.25-.31-.29l-1.32-.29v-5.78a7.27 7.27 0 00-.14-1.28 4 4 0 013-1.19c1.1 0 2.12.57 2.12 2.58v5.67l-.82.27c-.42.13-.68.33-.68.72a.9.9 0 000 .16h4.69a1 1 0 00.22-.57c0-.18-.09-.25-.31-.29l-1.32-.29zm-25.07.49c.19-2.21 1.06-3.3 2.52-3.3s2 1.13 2 2.37a4.4 4.4 0 01-.12.93zm6.1 1.06a7.8 7.8 0 00.25-1.79 3.39 3.39 0 00-3.62-3.72c-2.36 0-4.66 1.93-4.66 5.78s2.1 5.38 4.58 5.38 3.76-1.18 3.76-1.73a1 1 0 00-.29-.64 3.91 3.91 0 01-2.72 1c-2.13 0-3.4-1.51-3.43-4.32zM33.25 75.92l-2.61.27c-.54 0-.82.31-.82.69a.92.92 0 000 .17l1.61.23v13.56l-.81.27c-.42.13-.69.33-.69.72A.62.62 0 0030 92h4.69a1.1 1.1 0 00.22-.57c0-.18-.09-.25-.32-.29l-1.32-.29zm-6.29 0l-2.61.27c-.53 0-.82.31-.82.69a.92.92 0 000 .17l1.62.23v13.56l-.82.27c-.42.13-.68.33-.68.72a.9.9 0 000 .16h4.69a1 1 0 00.22-.57c0-.18-.08-.25-.31-.29L27 90.84zm-7.79 11.25v2.54A3 3 0 0117 90.86a1.49 1.49 0 01-1.59-1.64c0-1.26 1.19-1.85 3.21-2zM21 84.84c0-2.43-1.08-3.74-3.41-3.74-1.82 0-3.7 1.06-3.7 2.41 0 .64.4 1 1.09 1h.47a8.34 8.34 0 01.5-1.94 3.94 3.94 0 011.31-.22c1.43 0 1.94.92 1.94 2.83v1.06h-.59c-2.51 0-5.16.93-5.16 3.25a2.67 2.67 0 002.81 2.84 3.44 3.44 0 003-1.6A1.52 1.52 0 0021 92.19c1.22 0 1.73-.69 1.73-.91a1.46 1.46 0 00-.2-.62 1.08 1.08 0 01-.8.29c-.42 0-.77-.29-.77-1.26zm76.05-11.6v-4.95c0-1.93-.9-3-2.56-3a2.76 2.76 0 00-2.26 1v-.86h-1.88v7.79h2v-5.69a2.11 2.11 0 011.43-.53c.87 0 1.25.5 1.25 1.65v4.61zm-10.91-3.9c0 1.69-.66 2.36-1.5 2.36s-1.52-.64-1.52-2.36.69-2.34 1.52-2.34 1.5.63 1.5 2.36m2.07 0c0-2.84-1.54-4.08-3.52-4.08s-3.63 1.32-3.63 4.08 1.55 4.09 3.51 4.09 3.64-1.34 3.64-4.09M79.07 63a1.17 1.17 0 10-1.16 1.15A1.09 1.09 0 0079.07 63m-.16 2.48h-2v7.79h2zm-3.93 0H73V63.3h-1.78L71 65.48l-1 .19v1.38h1v3.34c0 2.2.78 3 2.52 3a3 3 0 001.5-.34l-.15-1.49a2.43 2.43 0 01-.82.14c-.73 0-1-.36-1-1.5v-3.15h1.75zM65 71.86a.88.88 0 01-.85-1c0-.63.55-.9 1.59-1h.4v1.44a1.45 1.45 0 01-1.14.48m-2.75-.76a2.15 2.15 0 002.18 2.33 1.93 1.93 0 001.85-1.05c0 .3 0 .63.05.86h1.85a15.31 15.31 0 01-.13-2.1v-2.54c0-2.24-1-3.26-2.84-3.26a3.88 3.88 0 00-2.88 1.15l.67 1.28a2.62 2.62 0 011.84-.75c.88 0 1.31.51 1.31 1.52v.27h-.32c-2 0-3.57.73-3.57 2.37M61 65.37a4.37 4.37 0 00-.63-.06 2 2 0 00-1.94 1.23v-1.09h-1.92v7.79h2v-5.41a2 2 0 011.73-.83 1.57 1.57 0 01.59.09zm-9.61 1.46c.71 0 1.11.52 1.11 1.36a2.43 2.43 0 010 .36h-2.56c.05-1.15.62-1.72 1.42-1.72m2.8-4.69h-2.3l-1.5 2.21h1.75l2-2.18zm.1 6.24c0-2-1-3.12-2.71-3.12-1.93 0-3.55 1.26-3.55 4 0 3 1.51 4.14 3.62 4.14a3.62 3.62 0 002.77-.91l-.47-1.41a3 3 0 01-1.85.63A1.83 1.83 0 0150 69.89h4.18a8.39 8.39 0 00.13-1.51M42.57 67c1 0 1.58.63 1.58 2.28s-.69 2.54-1.9 2.54a1.75 1.75 0 01-1-.26v-4.13a2 2 0 011.32-.43m3.65 2.18c0-2.66-1.19-3.9-2.9-3.9a2.6 2.6 0 00-2.18 1v-.86h-1.88v11h2v-3.31a2.73 2.73 0 001.34.3c2.16 0 3.6-1.44 3.6-4.25m-11.17.18c0 1.69-.66 2.36-1.5 2.36S32 71.06 32 69.34 32.72 67 33.55 67s1.5.63 1.5 2.36m2.07 0c0-2.84-1.54-4.08-3.52-4.08s-3.6 1.3-3.6 4.06 1.55 4.09 3.52 4.09 3.63-1.34 3.63-4.09m-11 0c0 1.69-.67 2.36-1.51 2.36s-1.52-.64-1.52-2.36.69-2.34 1.52-2.34 1.51.63 1.51 2.36m2.06 0c0-2.84-1.53-4.08-3.52-4.08s-3.63 1.32-3.63 4.08 1.55 4.09 3.52 4.09 3.63-1.34 3.63-4.09m-8.59-3.46a3.24 3.24 0 00-2.12-.64 3.8 3.8 0 00-4 4c0 3.06 1.5 4.16 3.64 4.16a3.26 3.26 0 002.5-.84l-.58-1.41a2.52 2.52 0 01-1.61.52c-1.09 0-1.89-.64-1.89-2.43 0-1.64.92-2.3 2.11-2.3a2.07 2.07 0 011.37.5z" fill="#444346"/></g></g></g></g></svg>