<svg width="196" height="82" viewBox="0 0 196 82" fill="none" xmlns="http://www.w3.org/2000/svg">
<g clip-path="url(#clip0_528_69)">
<path d="M15.9127 60.2905V49.69C15.8662 48.2878 15.3549 47.4096 14.3788 46.6084C13.4026 45.8226 12.473 45.422 11.0785 45.4066H10.5362C9.07979 45.4374 8.13465 45.9151 7.15852 46.8241C6.1824 47.7332 5.67109 48.6576 5.6401 50.0289V59.8283C5.68659 61.1995 6.1824 62.124 7.15852 63.0331C8.13465 63.9421 9.07979 64.4198 10.5362 64.4506H11.0785C12.473 64.4352 13.3871 64.0192 14.3788 63.2334C15.3549 62.4476 15.8662 61.6155 15.9127 60.2751M15.2774 67.9944C15.107 68.1022 14.9365 68.2409 14.7506 68.395L14.7041 68.4258L14.5957 68.5028L14.4872 68.5798L14.3788 68.6569L14.2548 68.7339L14.1309 68.811L14.0069 68.888L13.8675 68.965L13.728 69.0267L13.5886 69.0883L13.4491 69.1499L13.3097 69.2116L13.1702 69.2732L13.0308 69.3194L12.8913 69.3656L12.7519 69.4119L12.6124 69.4427L12.473 69.4735L12.3335 69.5043H12.1941C11.6518 69.6276 11.0785 69.6738 10.4897 69.6738H10.0559C7.2205 69.6122 4.8654 68.6877 2.97512 66.9004C1.08485 65.1131 0.10872 62.8944 0.03125 60.198V49.6437C0.10872 46.9628 1.08485 44.7287 2.97512 42.9414C4.8654 41.1695 7.2205 40.245 10.0559 40.168H10.6137C11.156 40.168 11.6518 40.2142 12.1166 40.2758H12.2561L12.3955 40.322L12.535 40.3529L12.6744 40.3837L12.8139 40.4299L12.9533 40.4761L13.1082 40.5223L13.2477 40.5686L13.4026 40.6302L13.5421 40.6918L13.6815 40.7535L13.821 40.8151L13.9604 40.8767L14.0844 40.9384L14.2083 41.0154H14.2393L14.3013 41.0616L14.3478 41.0924L14.4097 41.1233L14.4562 41.1541L14.5027 41.1849L14.5492 41.2157L14.5957 41.2465L14.6422 41.2773L14.6886 41.3081L14.7351 41.339L14.7816 41.3698L14.8281 41.4006L14.8746 41.4314L14.9211 41.4776L14.9675 41.5084L14.9985 41.5393L15.045 41.5701L15.1225 41.6317L15.1999 41.6779L15.2929 41.7087H15.4014H15.5098L15.6028 41.6779L15.6958 41.6317L15.7732 41.5701L15.8352 41.493L15.8817 41.4006L15.9127 41.3081V41.2003C15.9127 40.8613 15.9127 40.3837 16.3155 40.2604C16.5479 40.1988 16.8423 40.2296 17.0747 40.2296H20.6539C21.0257 40.2296 21.568 40.1372 21.7229 40.584C21.8314 40.9075 21.7539 41.6009 21.7539 41.9553V46.8857V58.4107V64.466C21.7539 66.469 21.8314 68.4874 21.599 70.475C20.9637 76.0218 18.1748 80.7366 12.2871 81.7689C8.70793 82.4006 5.14429 81.1372 2.38635 78.8722C2.04548 78.5949 1.34825 78.1326 1.37923 77.655C1.37923 77.4855 1.4722 77.3314 1.58066 77.2082C1.58066 77.2082 3.87378 74.8046 4.02872 74.5889C4.19915 74.404 4.41607 74.1575 4.67947 74.1575C5.03583 74.1575 5.42319 74.4964 6.07394 74.8816C7.18951 75.5287 8.38255 76.1296 9.65307 76.3145C10.4588 76.4378 11.3264 76.3145 12.1011 76.068C15.0915 75.1127 15.9282 71.3532 16.0986 68.395V68.2871V68.2409V68.1947L16.0676 68.1484V68.1022L16.0211 68.056L15.9901 68.0098L15.9592 67.9789L15.9127 67.9481L15.8662 67.9173L15.8197 67.8865H15.7732L15.7267 67.8403H15.6803L15.6338 67.8249H15.5873H15.5253H15.4788L15.4324 67.8403H15.3859L15.2929 67.9019L15.2774 67.9944Z" fill="#BD202E"/>
<path d="M62.1618 68.9961V65.1287C62.1618 64.8976 62.0999 64.7435 61.9914 64.6357C61.8674 64.5278 61.7125 64.4816 61.5111 64.4816H50.7892C50.5413 64.4816 50.3553 64.4354 50.2469 64.3429C50.1539 64.2505 50.0765 64.1426 50.0765 63.9732C50.0765 63.8191 50.1384 63.6342 50.2159 63.4955L61.9759 41.4316L62.0689 41.2005L62.0999 40.9694C62.0999 40.6304 61.8519 40.4609 61.3871 40.4609H42.128C41.6787 40.4609 41.4618 40.6612 41.4772 41.1081V44.9754C41.4772 45.4068 41.6787 45.6379 42.128 45.6225H52.1837C52.4161 45.6225 52.602 45.6688 52.7259 45.7612C52.8499 45.8536 52.8964 45.9769 52.9119 46.1464L52.8654 46.3775L52.7724 46.6086L40.8885 68.6725L40.7955 68.8882L40.749 69.1193C40.749 69.4583 40.9969 69.6278 41.4618 69.6278H61.5111C61.7435 69.6278 61.8984 69.5816 62.0069 69.4737C62.1153 69.3659 62.1618 69.2118 62.1618 68.9807" fill="#BD202E"/>
<path d="M28.8495 36.7318C28.865 36.9475 28.9269 37.117 29.0354 37.2248C29.1594 37.3481 29.3608 37.4251 29.6242 37.4251H33.6836C33.947 37.4251 34.1485 37.3481 34.2724 37.2248C34.3809 37.117 34.4583 36.9629 34.4583 36.7472V36.6239V32.1557C34.4583 31.8938 34.3809 31.6781 34.2569 31.5548C34.133 31.4315 33.9315 31.3699 33.6681 31.3545H33.3428C33.0949 31.3545 32.8779 31.4161 32.6455 31.6472L29.2368 35.4221L29.0819 35.607C28.896 35.8227 28.834 35.9922 28.834 36.2233V36.7318H28.8495Z" fill="#BD202E"/>
<path d="M34.4437 41.1545C34.4437 40.9234 34.3817 40.7539 34.2887 40.646C34.1803 40.5228 33.9944 40.4766 33.7465 40.4766H29.5321C29.2842 40.4766 29.1137 40.5536 28.9898 40.6769C28.8813 40.8001 28.8193 40.9542 28.8193 41.1699V68.9809C28.8193 69.212 28.8813 69.3815 28.9898 69.5047C29.0982 69.628 29.2842 69.6742 29.5321 69.6742H33.7465C33.9944 69.6742 34.1648 69.6126 34.2887 69.4739C34.3972 69.3507 34.4592 69.1966 34.4592 68.9809V41.1699L34.4437 41.1545Z" fill="#BD202E"/>
<path d="M76.8503 69.1343L76.556 69.0111H73.9684L76.8968 63.4335L76.9743 63.1715L76.8349 62.848L76.494 62.7247H73.5501L73.2557 62.848L73.1628 63.1099L73.2557 63.3718L73.5501 63.4951H75.9827L73.0698 69.0419L73.0078 69.2884L73.1318 69.6274C73.2092 69.7198 73.3177 69.7815 73.4726 69.7815H76.5714L76.8658 69.6582L76.9588 69.3963L76.8658 69.1343H76.8503ZM81.8859 65.1899L81.762 64.8972L81.4986 64.8048L81.2352 64.8972L81.1112 65.1899V68.1944C81.1112 68.4256 81.0183 68.6413 80.8478 68.8108C80.6774 68.9802 80.476 69.0573 80.2126 69.0573H80.1196C79.8717 69.0573 79.6703 68.9802 79.4998 68.8108C79.3294 68.6413 79.2364 68.441 79.2364 68.1944V65.1899L79.1125 64.8972L78.8491 64.8048L78.5857 64.8972L78.4617 65.1899V68.2099C78.4617 68.5026 78.5082 68.7491 78.6012 68.9494C78.6941 69.1497 78.8026 69.3192 78.9575 69.4579C79.1125 69.5966 79.2829 69.689 79.4843 69.7506C79.6858 69.8123 79.8872 69.8431 80.1196 69.8431H80.2126C80.3985 69.8431 80.5534 69.8277 80.7239 69.766C80.8788 69.7198 81.0028 69.6428 81.1112 69.5349L81.2507 69.766L81.4986 69.8431L81.762 69.7506L81.8859 69.4733V65.2053V65.1899ZM87.1539 68.3639C87.1539 68.025 87.0919 67.763 86.9525 67.5781C86.813 67.3933 86.6581 67.2392 86.4567 67.1313C86.2552 67.0235 86.0383 66.9464 85.8059 66.9002C85.5735 66.854 85.3566 66.7923 85.1552 66.7461C84.9692 66.6999 84.7988 66.6229 84.6594 66.5458C84.5199 66.4688 84.4579 66.3301 84.4579 66.1606V66.1298C84.4579 65.9757 84.5354 65.8525 84.6903 65.7446C84.8453 65.6368 85.0622 65.5751 85.3411 65.5751H85.3876C85.62 65.5751 85.8059 65.6059 85.9299 65.6676L86.2862 65.8371L86.5186 65.8987L86.782 65.7908L86.875 65.5289L86.7356 65.2362L86.5496 65.0975L86.2552 64.9588C86.1468 64.9126 86.0073 64.8664 85.8679 64.8356C85.7284 64.8048 85.558 64.7893 85.3721 64.7893H85.3256C85.1552 64.7893 84.9847 64.8047 84.7833 64.851C84.5819 64.8972 84.4114 64.9742 84.241 65.0667C84.0706 65.1745 83.9311 65.2978 83.8227 65.4673C83.7142 65.6368 83.6522 65.8371 83.6522 66.0836C83.6522 66.4072 83.7142 66.6537 83.8537 66.8232C83.9776 66.9926 84.1481 67.1313 84.3495 67.2238C84.5509 67.3162 84.7523 67.3933 84.9847 67.4395C85.2171 67.4857 85.4341 67.5319 85.6355 67.5935C85.8214 67.6552 85.9918 67.7476 86.1313 67.8401C86.2707 67.9479 86.3327 68.102 86.3327 68.3177V68.3485C86.3327 68.518 86.2398 68.6721 86.0693 68.8108C85.8989 68.9494 85.6665 69.0265 85.3411 69.0265H85.2946C85.1087 69.0265 84.9073 68.9648 84.7058 68.8416C84.5044 68.7183 84.3495 68.5642 84.21 68.3948L84.0551 68.2561L83.8692 68.2253L83.5903 68.3331L83.4663 68.6105L83.5128 68.8108C83.5903 68.9648 83.6987 69.1189 83.8227 69.2422C83.9466 69.3654 84.1016 69.4733 84.2565 69.5657C84.4115 69.6582 84.5819 69.7198 84.7523 69.766C84.9228 69.8123 85.0932 69.8431 85.2636 69.8431H85.3256C85.5425 69.8431 85.7439 69.8123 85.9609 69.7506C86.1778 69.689 86.3637 69.5966 86.5341 69.4733C86.7046 69.35 86.844 69.2114 86.937 69.0265C87.0454 68.857 87.0919 68.6413 87.0919 68.4102V68.3639H87.1539ZM92.5768 69.2268L92.3289 69.0881C92.1585 69.0573 92.0655 68.9494 92.0655 68.7491V66.3763C92.0655 66.1606 92.019 65.9603 91.9416 65.76C91.8641 65.5751 91.7556 65.4057 91.6007 65.267C91.4613 65.1283 91.2908 65.005 91.0894 64.928C90.888 64.851 90.6866 64.8048 90.4541 64.8048H90.3767C90.2372 64.8048 90.0978 64.8047 89.9583 64.851C89.8189 64.8818 89.6639 64.928 89.54 65.005L89.1526 65.2978C89.0287 65.4211 88.9357 65.5751 88.8428 65.76L88.7963 65.9449L88.9202 66.2069L89.1836 66.2993L89.3696 66.2531L89.5245 66.099C89.633 65.9295 89.7259 65.8063 89.8499 65.7138C89.9738 65.6368 90.1443 65.5905 90.3457 65.5905H90.4232C90.6556 65.5905 90.8415 65.6522 91.0119 65.7754C91.1824 65.8987 91.2598 66.1144 91.2598 66.4226V66.515L91.2288 66.592C91.1824 66.6383 91.0894 66.6845 90.95 66.7153C90.795 66.7461 90.6401 66.7769 90.4386 66.8078C90.2527 66.8386 90.0513 66.8848 89.8344 66.931C89.633 66.9926 89.4315 67.0697 89.2456 67.1775C89.0752 67.2854 88.9202 67.4241 88.7963 67.5935C88.6878 67.763 88.6258 67.9942 88.6258 68.2561V68.3793C88.6258 68.6105 88.6723 68.8262 88.7653 69.0111C88.8583 69.196 88.9822 69.35 89.1371 69.4733C89.2921 69.5966 89.4625 69.689 89.6639 69.7506C89.8654 69.8123 90.0668 69.8431 90.2682 69.8431H90.3612C90.795 69.8431 91.1669 69.7198 91.4767 69.4425L91.7401 69.689C91.8486 69.7506 91.9881 69.8123 92.174 69.8277H92.2515L92.5303 69.7198L92.6233 69.4425L92.5458 69.2114L92.5768 69.2268ZM91.2753 68.1944C91.2753 68.441 91.1824 68.6413 91.0119 68.8108C90.8415 68.9802 90.6246 69.0573 90.3922 69.0573H90.2992C90.0358 69.0573 89.8344 68.9957 89.6639 68.8724C89.509 68.7491 89.4315 68.5642 89.4315 68.3485V68.2715C89.4315 68.0866 89.4935 67.9633 89.6175 67.8709C89.7414 67.7784 89.8964 67.7014 90.0823 67.6398C90.2682 67.5936 90.4696 67.5473 90.6865 67.5165C90.9035 67.4857 91.1049 67.4549 91.3063 67.3933V68.1944H91.2753ZM100.293 66.438C100.293 66.1606 100.246 65.9141 100.153 65.6984C100.06 65.4827 99.9365 65.3286 99.7816 65.1899C99.6266 65.0513 99.4562 64.9588 99.2548 64.8972C99.0533 64.8356 98.8519 64.8048 98.635 64.8048H98.542C98.2786 64.8048 98.0462 64.851 97.8293 64.9588C97.6124 65.0667 97.4265 65.2053 97.2715 65.3902C97.1166 65.2208 96.9307 65.0667 96.7137 64.9588C96.4968 64.851 96.2644 64.8048 96.001 64.8048H95.9081C95.7221 64.8048 95.5517 64.8356 95.3967 64.8818C95.2418 64.928 95.1179 65.005 95.0249 65.1129L94.8854 64.8818L94.653 64.8048L94.3741 64.9126L94.2502 65.1899V69.4579L94.3741 69.7506L94.6375 69.8431L94.9009 69.7506L95.0249 69.4579V66.3609C95.0249 66.1298 95.1179 65.9295 95.2883 65.7908C95.4587 65.6522 95.6756 65.5751 95.9081 65.5751H96.001C96.2489 65.5751 96.4503 65.6522 96.6208 65.8217C96.7912 65.9757 96.8842 66.1914 96.8842 66.4534V69.4425L97.0081 69.7352L97.2715 69.8277L97.5349 69.7352L97.6589 69.4425V66.4534C97.6589 66.2069 97.7518 65.9911 97.9223 65.8217C98.0927 65.6522 98.3096 65.5751 98.5575 65.5751H98.6505C98.9139 65.5751 99.1153 65.6522 99.2858 65.7908C99.4407 65.9295 99.5337 66.1452 99.5337 66.438V69.4579L99.6576 69.7506L99.921 69.8431L100.184 69.7506L100.308 69.4579V66.438H100.293ZM108.164 66.438C108.164 66.1606 108.117 65.9141 108.04 65.6984C107.947 65.4827 107.823 65.3286 107.668 65.1899C107.513 65.0513 107.343 64.9588 107.141 64.8972C106.94 64.8356 106.738 64.8048 106.506 64.8048H106.413C106.15 64.8048 105.917 64.851 105.7 64.9588C105.483 65.0667 105.297 65.2053 105.143 65.3902C104.988 65.2208 104.802 65.0667 104.585 64.9588C104.368 64.851 104.135 64.8048 103.872 64.8048H103.779C103.593 64.8048 103.438 64.8356 103.283 64.8818C103.128 64.928 102.989 65.005 102.896 65.1129L102.741 64.8818L102.509 64.8048L102.23 64.9126L102.106 65.1899V69.4579L102.23 69.7506L102.493 69.8431L102.756 69.7506L102.88 69.4579V66.3609C102.88 66.1298 102.973 65.9295 103.144 65.7908C103.314 65.6522 103.531 65.5751 103.764 65.5751H103.857C104.104 65.5751 104.321 65.6522 104.476 65.8217C104.647 65.9757 104.74 66.1914 104.74 66.4534V69.4425L104.864 69.7352L105.127 69.8277L105.39 69.7352L105.514 69.4425V66.4534C105.514 66.2069 105.607 65.9911 105.778 65.8217C105.948 65.6522 106.15 65.5751 106.398 65.5751H106.491C106.754 65.5751 106.955 65.6522 107.126 65.7908C107.296 65.9295 107.374 66.1452 107.374 66.438V69.4579L107.498 69.7506L107.761 69.8431L108.024 69.7506L108.148 69.4579V66.438H108.164ZM113.308 66.4534C113.308 66.2223 113.261 66.0066 113.184 65.7908C113.091 65.5905 112.983 65.4211 112.828 65.267C112.673 65.1129 112.502 65.0051 112.301 64.9126C112.099 64.8356 111.882 64.7893 111.666 64.7893H111.557C111.325 64.7893 111.123 64.8356 110.906 64.9126C110.705 65.0051 110.534 65.1129 110.38 65.267C110.225 65.4211 110.116 65.5905 110.023 65.7908C109.93 65.9911 109.899 66.2069 109.899 66.4226V68.179C109.899 68.4102 109.946 68.6259 110.023 68.8262C110.116 69.0265 110.225 69.196 110.38 69.35C110.534 69.4887 110.705 69.612 110.906 69.7044C111.108 69.7815 111.325 69.8277 111.557 69.8277H111.666C112.006 69.8277 112.316 69.7352 112.58 69.5657C112.843 69.3809 113.044 69.1497 113.168 68.857L113.215 68.6875L113.091 68.3948L112.812 68.2869L112.611 68.3485L112.471 68.5334C112.409 68.6721 112.301 68.7954 112.161 68.9032C112.022 69.0111 111.867 69.0573 111.666 69.0573H111.557C111.325 69.0573 111.108 68.9802 110.937 68.8108C110.767 68.6413 110.674 68.441 110.674 68.2099V67.686H112.921L113.199 67.5627L113.308 67.2854V66.4534ZM112.518 66.9618H110.674V66.438C110.674 66.1914 110.767 65.9911 110.937 65.8217C111.108 65.6522 111.309 65.5751 111.557 65.5751H111.666C111.898 65.5751 112.099 65.6522 112.27 65.8217C112.44 65.9911 112.533 66.2069 112.533 66.4534V66.9618H112.518ZM118.405 66.438C118.405 66.1606 118.359 65.9141 118.281 65.6984C118.189 65.4981 118.065 65.3132 117.925 65.1899C117.77 65.0513 117.6 64.9588 117.398 64.8818C117.197 64.8202 116.995 64.7893 116.779 64.7893H116.686C116.515 64.7893 116.345 64.8202 116.174 64.8664C116.019 64.9126 115.895 64.9896 115.802 65.0975L115.663 64.8664L115.415 64.7893L115.136 64.8972L115.012 65.1745V69.4425L115.136 69.7352L115.4 69.8277L115.663 69.7352L115.787 69.4425V66.4226C115.787 66.176 115.864 65.9757 116.05 65.8063C116.221 65.6368 116.422 65.5597 116.67 65.5597H116.763C117.011 65.5597 117.212 65.6522 117.383 65.8063C117.553 65.9757 117.646 66.1914 117.646 66.4226V69.4425L117.77 69.7352L118.034 69.8277L118.312 69.7352L118.421 69.4425V66.4226L118.405 66.438ZM123.952 69.2268L123.704 69.0881C123.534 69.0573 123.441 68.9494 123.441 68.7491V66.3763C123.441 66.1606 123.395 65.9603 123.317 65.76C123.24 65.5751 123.116 65.4057 122.976 65.267C122.837 65.1283 122.666 65.005 122.465 64.928C122.263 64.851 122.062 64.8048 121.83 64.8048H121.752C121.613 64.8048 121.473 64.8047 121.334 64.851C121.194 64.8818 121.055 64.928 120.915 65.005L120.528 65.2978C120.404 65.4211 120.311 65.5751 120.218 65.76L120.172 65.9449L120.296 66.2069L120.559 66.2993L120.761 66.2531L120.915 66.099C121.008 65.9295 121.117 65.8063 121.241 65.7138C121.365 65.6368 121.535 65.5905 121.737 65.5905H121.814C122.047 65.5905 122.232 65.6522 122.403 65.7754C122.573 65.8987 122.651 66.1144 122.651 66.4226V66.515L122.62 66.592C122.573 66.6383 122.48 66.6845 122.341 66.7153C122.186 66.7461 122.031 66.7769 121.83 66.8078C121.644 66.8386 121.442 66.8848 121.225 66.931C121.008 66.9926 120.823 67.0697 120.637 67.1775C120.451 67.2854 120.311 67.4241 120.203 67.5935C120.079 67.763 120.032 67.9942 120.032 68.2561V68.3793C120.032 68.6105 120.079 68.8262 120.172 69.0111C120.265 69.196 120.389 69.35 120.544 69.4733C120.699 69.5966 120.869 69.689 121.07 69.7506C121.272 69.8123 121.473 69.8431 121.675 69.8431H121.768C122.201 69.8431 122.573 69.7198 122.883 69.4425L123.147 69.689C123.255 69.7506 123.395 69.8123 123.58 69.8277H123.658L123.937 69.7198L124.03 69.4425L123.952 69.2114V69.2268ZM122.651 68.1944C122.651 68.441 122.558 68.6413 122.387 68.8108C122.217 68.9802 122 69.0573 121.768 69.0573H121.675C121.411 69.0573 121.21 68.9957 121.039 68.8724C120.885 68.7491 120.792 68.5642 120.792 68.3485V68.2715C120.792 68.0866 120.854 67.9633 120.977 67.8709C121.101 67.7784 121.256 67.7014 121.427 67.6398C121.613 67.5936 121.814 67.5473 122.031 67.5165C122.248 67.4857 122.449 67.4549 122.635 67.3933V68.1944H122.651ZM128.136 65.2978C128.012 65.1283 127.857 64.9896 127.655 64.9126C127.454 64.8356 127.268 64.7893 127.067 64.7893L126.726 64.8202L126.509 64.8972L126.338 64.9896L126.199 64.8356L125.998 64.7893L125.719 64.8972L125.595 65.1745V69.4271L125.719 69.7198L125.982 69.8123L126.245 69.7198L126.369 69.4271V66.0066L126.478 65.7908L126.679 65.6368C126.772 65.5905 126.896 65.5751 127.051 65.5751L127.361 65.6522L127.531 65.7908L127.841 65.9295L128.105 65.8217L128.213 65.5597L128.12 65.2824L128.136 65.2978ZM133.218 66.438C133.218 66.2069 133.171 66.0066 133.094 65.8063C133.016 65.606 132.892 65.4365 132.737 65.2824C132.583 65.1283 132.412 65.0205 132.211 64.928C132.009 64.8356 131.792 64.8048 131.56 64.8048H131.498C131.312 64.8048 131.142 64.8356 130.987 64.8972C130.816 64.9588 130.692 65.0359 130.599 65.1437V63.0637L130.475 62.7709L130.212 62.6785L129.949 62.7709L129.825 63.0637V69.4887L129.949 69.766L130.212 69.8585L130.46 69.7815L130.599 69.5503C130.677 69.6274 130.785 69.7044 130.94 69.7506C131.08 69.8123 131.266 69.8431 131.498 69.8431H131.591C131.823 69.8431 132.025 69.7969 132.242 69.7198C132.443 69.6274 132.614 69.5195 132.768 69.3654C132.923 69.2114 133.047 69.0419 133.125 68.8416C133.218 68.6413 133.264 68.4256 133.264 68.1944V66.438H133.218ZM132.443 68.1944C132.443 68.4256 132.366 68.6413 132.18 68.8108C132.009 68.9802 131.792 69.0573 131.544 69.0573H131.451C131.219 69.0573 131.018 68.9802 130.832 68.8416C130.661 68.7029 130.568 68.5026 130.568 68.2561V66.3609C130.568 66.1298 130.661 65.9295 130.832 65.7908C131.002 65.6522 131.204 65.5751 131.451 65.5751H131.544C131.792 65.5751 132.009 65.6676 132.18 65.8217C132.35 65.9911 132.443 66.1914 132.443 66.438V68.1944ZM138.331 66.4534C138.331 66.2223 138.284 66.0066 138.207 65.7908C138.129 65.5905 138.005 65.4211 137.851 65.267C137.696 65.1129 137.525 65.0051 137.324 64.9126C137.122 64.8356 136.905 64.7893 136.673 64.7893H136.564C136.332 64.7893 136.131 64.8356 135.914 64.9126C135.712 65.0051 135.542 65.1129 135.387 65.267C135.232 65.4211 135.124 65.5905 135.031 65.7908C134.938 65.9911 134.907 66.2069 134.907 66.4226V68.179C134.907 68.4102 134.953 68.6259 135.031 68.8262C135.124 69.0265 135.232 69.196 135.387 69.35C135.542 69.4887 135.712 69.612 135.914 69.7044C136.115 69.7815 136.332 69.8277 136.564 69.8277H136.673C137.029 69.8277 137.339 69.7352 137.603 69.5657C137.866 69.3809 138.067 69.1497 138.176 68.857L138.222 68.6875L138.098 68.3948L137.82 68.2869L137.618 68.3485L137.479 68.5334C137.417 68.6721 137.308 68.7954 137.169 68.9032C137.029 69.0111 136.874 69.0573 136.673 69.0573H136.564C136.317 69.0573 136.115 68.9802 135.945 68.8108C135.774 68.6413 135.697 68.441 135.697 68.2099V67.686H137.943L138.222 67.5627L138.331 67.2854V66.4534ZM137.541 66.9618H135.697V66.438C135.697 66.1914 135.79 65.9911 135.96 65.8217C136.131 65.6522 136.348 65.5751 136.58 65.5751H136.688C136.921 65.5751 137.122 65.6522 137.293 65.8217C137.463 65.9911 137.556 66.2069 137.556 66.4534V66.9618H137.541ZM140.856 63.0483L140.732 62.7555L140.469 62.6631L140.206 62.7555L140.082 63.0483V63.2794L140.206 63.5721L140.469 63.6646L140.732 63.5721L140.856 63.2794V63.0483ZM140.856 65.1899L140.732 64.8972L140.469 64.8048L140.206 64.8972L140.082 65.1899V69.4579L140.206 69.7506L140.469 69.8431L140.732 69.7506L140.856 69.4579V65.1899ZM144.931 69.196L144.652 69.0573C144.497 69.0573 144.358 68.9957 144.234 68.8878C144.11 68.7954 144.048 68.6567 144.048 68.4718V65.5905H144.606L144.9 65.4673L144.993 65.2053L144.9 64.9434L144.606 64.8202H144.048V63.0483L143.924 62.7555L143.661 62.6631L143.397 62.7555L143.273 63.0483V64.8202H142.917L142.623 64.9434L142.53 65.2053L142.623 65.4673L142.917 65.5905H143.273V68.4872C143.273 68.6721 143.304 68.8416 143.382 69.0111C143.459 69.1805 143.552 69.3192 143.676 69.4425C143.8 69.5657 143.94 69.6582 144.11 69.7352C144.281 69.8123 144.451 69.8431 144.637 69.8431L144.931 69.7198L145.024 69.4579L144.931 69.196ZM150.726 69.689C150.571 69.4271 150.416 69.1343 150.292 68.7954C150.168 68.4564 150.06 68.102 149.982 67.7014C149.905 67.3008 149.874 66.8848 149.874 66.4534C149.874 66.022 149.905 65.6214 149.982 65.2362C150.06 64.851 150.153 64.4812 150.277 64.1422C150.401 63.8032 150.54 63.5105 150.711 63.2486C150.866 62.9866 151.036 62.7709 151.206 62.6014L151.315 62.3549L151.191 62.093L150.928 61.9851L150.664 62.1084C150.447 62.3241 150.246 62.586 150.06 62.8942C149.874 63.2023 149.703 63.5413 149.564 63.9265C149.425 64.2963 149.316 64.6969 149.239 65.1283C149.161 65.5597 149.115 66.0066 149.115 66.4688C149.115 66.931 149.161 67.3932 149.239 67.8401C149.316 68.2869 149.425 68.6875 149.58 69.0727C149.719 69.4425 149.889 69.7969 150.075 70.105C150.261 70.4132 150.478 70.6751 150.695 70.8754L150.958 70.9987L151.237 70.8754L151.377 70.6289L151.253 70.3669C151.082 70.1975 150.897 69.9818 150.742 69.7198M156.583 66.3301L156.459 66.0528L156.18 65.9295H154.708L154.414 66.0528L154.321 66.3147L154.414 66.5766L154.708 66.6999H155.793V67.8863C155.793 68.0558 155.762 68.1944 155.7 68.3331L155.452 68.7029C155.343 68.8108 155.219 68.8878 155.08 68.9494C154.94 69.0111 154.786 69.0419 154.615 69.0419H154.507C154.336 69.0419 154.181 69.0111 154.042 68.9494C153.902 68.8878 153.778 68.7954 153.67 68.7029L153.422 68.3331C153.36 68.1944 153.329 68.0404 153.329 67.8709V64.5736C153.329 64.4196 153.36 64.2655 153.422 64.1268C153.484 63.9881 153.562 63.8649 153.67 63.757C153.778 63.6492 153.902 63.5721 154.042 63.5105C154.181 63.4489 154.336 63.4181 154.507 63.4181H154.615C154.956 63.4181 155.219 63.5105 155.421 63.6954C155.622 63.8803 155.731 64.1268 155.793 64.4041L155.932 64.6507L156.18 64.7277L156.443 64.6353L156.567 64.3579V64.2963C156.536 64.0652 156.459 63.8341 156.35 63.6338C156.226 63.4335 156.087 63.2486 155.917 63.1099C155.746 62.9558 155.545 62.848 155.312 62.7555C155.095 62.6785 154.848 62.6323 154.615 62.6323H154.507C154.243 62.6323 153.98 62.6785 153.747 62.7863C153.515 62.8788 153.298 63.0175 153.128 63.2023C152.957 63.3718 152.818 63.5875 152.709 63.8187C152.601 64.0498 152.554 64.3117 152.554 64.5736V67.8709C152.554 68.1482 152.601 68.3948 152.709 68.6259C152.818 68.857 152.957 69.0727 153.128 69.2422C153.298 69.4117 153.515 69.5503 153.747 69.6582C153.98 69.7506 154.243 69.7969 154.507 69.7969H154.615C154.878 69.7969 155.142 69.7506 155.374 69.6582C155.607 69.5657 155.824 69.4271 155.994 69.2422C156.165 69.0727 156.304 68.8724 156.412 68.6259C156.521 68.3948 156.567 68.1328 156.567 67.8709V66.2839L156.583 66.3301ZM159.434 63.0483L159.31 62.7555L159.046 62.6631L158.783 62.7555L158.659 63.0483V69.4579L158.783 69.7506L159.046 69.8431L159.31 69.7506L159.434 69.4579V63.0483ZM165.136 69.1343L164.841 69.0111H162.254L165.182 63.4335L165.244 63.1715L165.12 62.848L164.779 62.7247H161.835L161.541 62.848L161.448 63.1099L161.541 63.3718L161.835 63.4951H164.268L161.355 69.0419L161.293 69.2884L161.417 69.6274C161.494 69.7198 161.603 69.7815 161.758 69.7815H164.857L165.151 69.6582L165.244 69.3963L165.151 69.1343H165.136ZM168.684 65.1283C168.606 64.6969 168.498 64.2963 168.358 63.9111C168.219 63.5413 168.064 63.1869 167.878 62.8788C167.692 62.5706 167.491 62.3087 167.258 62.093L166.995 61.9697L166.731 62.0776L166.608 62.3395L166.716 62.586C166.886 62.7555 167.057 62.9712 167.227 63.2332C167.382 63.4951 167.537 63.8032 167.661 64.1268C167.785 64.4658 167.878 64.8202 167.955 65.2208C168.033 65.606 168.064 66.022 168.064 66.438C168.064 66.854 168.033 67.2854 167.955 67.686C167.878 68.0866 167.785 68.441 167.646 68.7799C167.522 69.1189 167.367 69.4117 167.212 69.6736C167.057 69.9355 166.871 70.1512 166.7 70.3207L166.592 70.5672L166.716 70.8292L166.995 70.9524L167.258 70.8292C167.475 70.6135 167.677 70.3669 167.878 70.0588C168.064 69.7506 168.234 69.4117 168.374 69.0265C168.513 68.6413 168.622 68.2407 168.699 67.7939C168.777 67.3624 168.823 66.9002 168.823 66.4226C168.823 65.9449 168.792 65.5289 168.699 65.0975M176.818 66.3301L176.694 66.0528L176.415 65.9295H174.943L174.649 66.0528L174.556 66.3147L174.649 66.5766L174.943 66.6999H176.028V67.8863C176.028 68.0558 175.997 68.1944 175.935 68.3331L175.687 68.7029C175.579 68.8108 175.455 68.8878 175.315 68.9494C175.176 69.0111 175.021 69.0419 174.866 69.0419H174.757C174.587 69.0419 174.447 69.0111 174.293 68.9494C174.153 68.8878 174.029 68.7954 173.921 68.7029L173.673 68.3331C173.611 68.1944 173.58 68.0404 173.58 67.8709V64.5736C173.58 64.4196 173.611 64.2655 173.673 64.1268C173.735 63.9881 173.828 63.8649 173.921 63.757C174.029 63.6492 174.153 63.5721 174.293 63.5105C174.432 63.4489 174.587 63.4181 174.757 63.4181H174.866C175.207 63.4181 175.47 63.5105 175.656 63.6954C175.857 63.8803 175.981 64.1268 176.028 64.4041L176.167 64.6507L176.415 64.7277L176.679 64.6353L176.803 64.3579V64.2963C176.772 64.0652 176.694 63.8341 176.586 63.6338C176.477 63.4335 176.322 63.2486 176.152 63.1099C175.981 62.9558 175.78 62.848 175.548 62.7555C175.331 62.6785 175.098 62.6323 174.85 62.6323H174.742C174.479 62.6323 174.215 62.6785 173.983 62.7863C173.75 62.8788 173.533 63.0175 173.363 63.2023C173.192 63.3718 173.053 63.5875 172.945 63.8187C172.836 64.0498 172.79 64.3117 172.79 64.5736V67.8709C172.79 68.1482 172.836 68.3948 172.945 68.6259C173.053 68.857 173.192 69.0727 173.363 69.2422C173.533 69.4117 173.75 69.5503 173.983 69.6582C174.231 69.7506 174.479 69.7969 174.742 69.7969H174.85C175.114 69.7969 175.377 69.7506 175.61 69.6582C175.842 69.5657 176.059 69.4271 176.229 69.2422C176.4 69.0727 176.539 68.8724 176.648 68.6259C176.756 68.3948 176.803 68.1328 176.803 67.8709V66.2839L176.818 66.3301ZM184.767 66.438C184.767 66.1606 184.72 65.9141 184.627 65.6984C184.534 65.4827 184.41 65.3286 184.255 65.1899C184.1 65.0513 183.93 64.9588 183.728 64.8972C183.527 64.8356 183.31 64.8048 183.093 64.8048H183C182.737 64.8048 182.504 64.851 182.288 64.9588C182.071 65.0667 181.885 65.2053 181.73 65.3902C181.575 65.2208 181.389 65.0667 181.172 64.9588C180.955 64.851 180.707 64.8048 180.459 64.8048H180.366C180.18 64.8048 180.025 64.8356 179.855 64.8818C179.7 64.928 179.576 65.005 179.468 65.1129L179.328 64.8818L179.096 64.8048L178.817 64.9126L178.693 65.1899V69.4579L178.817 69.7506L179.08 69.8431L179.344 69.7506L179.468 69.4579V66.3609C179.468 66.1298 179.561 65.9295 179.731 65.7908C179.917 65.6522 180.118 65.5751 180.351 65.5751H180.444C180.692 65.5751 180.893 65.6522 181.063 65.8217C181.234 65.9757 181.327 66.1914 181.327 66.4534V69.4425L181.451 69.7352L181.714 69.8277L181.978 69.7352L182.102 69.4425V66.4534C182.102 66.2069 182.179 65.9911 182.365 65.8217C182.535 65.6522 182.752 65.5751 182.985 65.5751H183.078C183.341 65.5751 183.558 65.6522 183.713 65.7908C183.868 65.9295 183.961 66.1452 183.961 66.438V69.4579L184.085 69.7506L184.348 69.8431L184.612 69.7506L184.736 69.4579V66.438H184.767ZM190.081 66.438C190.081 66.2069 190.035 66.0066 189.957 65.8063C189.864 65.606 189.756 65.4365 189.601 65.2824C189.446 65.1283 189.275 65.0205 189.074 64.928C188.872 64.8356 188.656 64.8048 188.423 64.8048H188.346C188.175 64.8048 187.989 64.8356 187.834 64.8972C187.679 64.9588 187.54 65.0359 187.463 65.1437V63.0637L187.339 62.7709L187.06 62.6785L186.796 62.7709L186.672 63.0637V69.4887L186.796 69.766L187.06 69.8585L187.308 69.7815L187.447 69.5503C187.447 69.5503 187.633 69.7044 187.788 69.7506C187.927 69.8123 188.113 69.8431 188.33 69.8431H188.423C188.64 69.8431 188.857 69.7969 189.058 69.7198C189.26 69.6274 189.43 69.5195 189.585 69.3654C189.74 69.2114 189.864 69.0419 189.942 68.8416C190.035 68.6413 190.081 68.4256 190.081 68.1944V66.438ZM189.291 68.1944C189.291 68.4256 189.213 68.6413 189.027 68.8108C188.857 68.9802 188.656 69.0573 188.408 69.0573H188.315C188.082 69.0573 187.881 68.9802 187.695 68.8416C187.525 68.7029 187.432 68.5026 187.432 68.2561V66.3609C187.432 66.1298 187.525 65.9295 187.695 65.7908C187.865 65.6522 188.067 65.5751 188.315 65.5751H188.408C188.656 65.5751 188.857 65.6676 189.027 65.8217C189.198 65.9911 189.291 66.1914 189.291 66.438V68.1944ZM196 63.0483L195.876 62.7555L195.612 62.6631L195.349 62.7555L195.225 63.0483V65.7446H192.792V63.0483L192.669 62.7555L192.405 62.6631L192.142 62.7555L192.018 63.0483V69.4579L192.142 69.7506L192.405 69.8431L192.669 69.7506L192.792 69.4579V66.5304H195.225V69.4579C195.225 69.5966 195.272 69.689 195.349 69.7506L195.612 69.8431L195.876 69.7506C195.953 69.689 196 69.5966 196 69.4579V63.0483Z" fill="#BD202E"/>
<path d="M75.3015 51.6155L75.0071 51.4922C74.8211 51.4922 74.6352 51.523 74.4803 51.6C74.3253 51.6617 74.1704 51.7541 74.0619 51.8774C73.938 52.0006 73.845 52.1393 73.783 52.3088C73.7211 52.4783 73.6901 52.6478 73.6901 52.8481V53.6647H73.4577L73.1633 53.7879L73.0703 54.0499L73.1633 54.3118L73.4577 54.4351H73.6901V58.287L73.814 58.5798L74.0774 58.6722L74.3408 58.5798L74.4648 58.287V54.4351H74.9451L75.2395 54.3118L75.3324 54.0499L75.2395 53.7879L74.9451 53.6647H74.4648V52.8481C74.4648 52.694 74.5113 52.5553 74.6197 52.4475C74.7127 52.3396 74.8521 52.278 75.0071 52.278L75.3015 52.1547L75.3944 51.8928L75.3015 51.6309V51.6155ZM79.8722 51.8774L79.7483 51.5846L79.4694 51.4922L79.206 51.5846L79.082 51.8774V52.1085L79.206 52.4012L79.4694 52.4937L79.7328 52.4012L79.8567 52.1085V51.8774H79.8722ZM77.9819 51.8774L77.858 51.5846L77.5946 51.4922L77.3312 51.5846L77.2072 51.8774V52.1085L77.3312 52.4012L77.5946 52.4937L77.858 52.4012L77.9819 52.1085V51.8774ZM80.2596 54.0191L80.1356 53.7263L79.8722 53.6339L79.6088 53.7263L79.4849 54.0191V57.0236C79.4849 57.2547 79.3919 57.4704 79.2215 57.6399C79.051 57.8094 78.8496 57.9018 78.6017 57.9018H78.5087C78.2608 57.9018 78.0594 57.8094 77.889 57.6399C77.7185 57.4704 77.6256 57.2701 77.6256 57.0236V54.0191L77.5016 53.7263L77.2382 53.6339L76.9748 53.7263L76.8509 54.0191V57.039C76.8509 57.3317 76.8973 57.5628 76.9903 57.7785C77.0833 57.9788 77.1917 58.1483 77.3467 58.287C77.5016 58.4103 77.672 58.5181 77.8735 58.5798C78.0749 58.6414 78.2763 58.6722 78.5087 58.6722H78.6017C78.7721 58.6722 78.9426 58.6414 79.113 58.5952C79.2679 58.5489 79.3919 58.4719 79.5004 58.3794L79.6398 58.6106L79.8877 58.6876L80.1511 58.5952L80.2751 58.3178V54.0345L80.2596 54.0191ZM84.6444 54.1269C84.5204 53.942 84.3655 53.8188 84.1641 53.7417C83.9626 53.6647 83.7767 53.6185 83.5753 53.6185L83.2344 53.6493L83.002 53.7263L82.8316 53.8342L82.6921 53.6801L82.4907 53.6339L82.2118 53.7417L82.0879 54.0191V58.2716L82.2118 58.5798L82.4752 58.6722L82.7386 58.5798L82.8626 58.2716V55.0976L82.8936 54.8511L82.9865 54.6354L83.1879 54.4813C83.2809 54.4351 83.4049 54.4197 83.5598 54.4197L83.8697 54.4967L84.0401 54.6354L84.3655 54.774L84.6289 54.6662L84.7373 54.4043L84.6444 54.1423V54.1269ZM90.5011 51.8774L90.3772 51.5846L90.1138 51.4922L89.8504 51.5846L89.7264 51.8774V58.287L89.8504 58.5798L90.1138 58.6722L90.3772 58.5798L90.5011 58.287V51.8774ZM95.986 55.2671C95.986 54.9897 95.9396 54.7432 95.8466 54.5429C95.7536 54.3426 95.6297 54.1577 95.4902 54.0191C95.3353 53.8804 95.1649 53.7879 94.9634 53.7263C94.762 53.6647 94.5606 53.6339 94.3437 53.6339H94.2507C94.0803 53.6339 93.9098 53.6647 93.7394 53.7109C93.5845 53.7725 93.4605 53.8342 93.3675 53.942L93.2281 53.7109L92.9802 53.6339L92.7013 53.7417L92.5773 54.0191V58.3024L92.7013 58.5952L92.9647 58.6876L93.2281 58.5952L93.3521 58.3024V55.2825C93.3521 55.036 93.445 54.8357 93.6154 54.6662C93.7859 54.4967 93.9873 54.4197 94.2352 54.4197H94.3282C94.5761 54.4197 94.7775 54.5121 94.9479 54.6816C95.1184 54.8511 95.2113 55.0514 95.2113 55.2979V58.3178L95.3353 58.6106L95.5987 58.703L95.8621 58.6106L95.986 58.3178V55.2979V55.2671ZM99.8441 58.0251L99.5652 57.8864C99.4102 57.8864 99.2708 57.8094 99.1468 57.7169C99.0229 57.6245 98.9609 57.4858 98.9609 57.3009V54.4197H99.5187L99.8131 54.2964L99.906 54.0345L99.8131 53.7725L99.5187 53.6493H98.9609V51.8774L98.837 51.5846L98.5736 51.4922L98.3102 51.5846L98.1862 51.8774V53.6493H97.8298L97.5355 53.7725L97.4425 54.0345L97.5355 54.2964L97.8298 54.4197H98.1862V57.3163C98.1862 57.5012 98.2172 57.6707 98.2947 57.8402C98.3566 57.9943 98.4651 58.1483 98.5891 58.2716C98.713 58.3949 98.8524 58.4873 99.0229 58.5643C99.1933 58.626 99.3638 58.6722 99.5497 58.6722L99.8441 58.5489L99.937 58.287L99.8441 58.0251ZM104.771 55.2825C104.771 55.0514 104.725 54.8203 104.647 54.62C104.554 54.4197 104.446 54.2502 104.291 54.0961C104.136 53.942 103.965 53.8342 103.764 53.7571C103.563 53.6801 103.346 53.6339 103.113 53.6339H103.005C102.788 53.6339 102.571 53.6801 102.37 53.7571C102.168 53.8496 101.982 53.9574 101.843 54.1115C101.688 54.2656 101.579 54.4351 101.486 54.6354C101.393 54.8357 101.362 55.0514 101.362 55.2671V57.0236C101.362 57.2547 101.393 57.4704 101.486 57.6707C101.564 57.871 101.688 58.0405 101.843 58.1946C101.998 58.3332 102.168 58.4565 102.37 58.5335C102.571 58.626 102.788 58.6568 103.005 58.6568H103.113C103.47 58.6568 103.764 58.5643 104.027 58.3794C104.291 58.1946 104.492 57.9634 104.616 57.6861L104.663 57.5166L104.539 57.2239L104.26 57.116L104.058 57.1776L103.919 57.3625C103.857 57.5012 103.749 57.6245 103.609 57.7323C103.47 57.8402 103.315 57.8864 103.113 57.8864H103.005C102.757 57.8864 102.556 57.794 102.385 57.6245C102.215 57.455 102.122 57.2547 102.122 57.0082V56.4997H104.368L104.647 56.3764L104.756 56.0991V55.2671L104.771 55.2825ZM103.981 55.7909H102.122V55.2825C102.122 55.036 102.215 54.8203 102.385 54.6508C102.556 54.4813 102.757 54.4043 103.005 54.4043H103.113C103.346 54.4043 103.532 54.4967 103.718 54.6508C103.888 54.8203 103.981 55.036 103.981 55.2825V55.7909ZM108.986 54.1269C108.862 53.942 108.707 53.8188 108.505 53.7417C108.304 53.6647 108.118 53.6185 107.916 53.6185L107.576 53.6493L107.359 53.7263L107.188 53.8342L107.049 53.6801L106.847 53.6339L106.568 53.7417L106.445 54.0191V58.2716L106.568 58.5798L106.832 58.6722L107.095 58.5798L107.219 58.2716V54.8511L107.328 54.6354L107.529 54.4813C107.622 54.4351 107.746 54.4197 107.901 54.4197L108.211 54.4967L108.381 54.6354L108.691 54.774L108.955 54.6662L109.063 54.4043L108.97 54.1423L108.986 54.1269ZM113.82 55.2671C113.82 54.9897 113.773 54.7432 113.696 54.5429C113.603 54.3426 113.479 54.1577 113.339 54.0191C113.184 53.8804 113.014 53.7879 112.813 53.7263C112.611 53.6647 112.41 53.6339 112.193 53.6339H112.1C111.914 53.6339 111.759 53.6647 111.589 53.7109C111.434 53.7725 111.31 53.8342 111.217 53.942L111.077 53.7109L110.829 53.6339L110.55 53.7417L110.427 54.0191V58.3024L110.55 58.5952L110.814 58.6876L111.077 58.5952L111.201 58.3024V55.2825C111.201 55.036 111.294 54.8357 111.465 54.6662C111.635 54.4967 111.852 54.4197 112.084 54.4197H112.177C112.425 54.4197 112.627 54.5121 112.797 54.6816C112.968 54.8511 113.061 55.0514 113.061 55.2979V58.3178L113.184 58.6106L113.448 58.703L113.711 58.6106L113.835 58.3178V55.2979L113.82 55.2671ZM119.367 58.0405L119.119 57.9018C118.948 57.871 118.855 57.7631 118.855 57.5628V55.19C118.855 54.9743 118.809 54.7586 118.731 54.5737C118.654 54.3888 118.53 54.2194 118.39 54.0653C118.251 53.9266 118.081 53.8188 117.879 53.7263C117.678 53.6493 117.461 53.6031 117.244 53.6031H117.166C117.027 53.6031 116.888 53.6185 116.748 53.6493C116.609 53.6801 116.469 53.7263 116.33 53.8033L115.942 54.0961C115.818 54.2194 115.725 54.3734 115.648 54.5583L115.602 54.7432L115.725 55.0052L115.989 55.0976L116.19 55.0514L116.345 54.8973C116.438 54.7278 116.547 54.5891 116.671 54.5121C116.795 54.4197 116.965 54.3888 117.166 54.3888H117.244C117.476 54.3888 117.662 54.4505 117.833 54.5737C118.003 54.697 118.081 54.9127 118.081 55.2209V55.3133L118.05 55.3904C118.003 55.452 117.91 55.4828 117.771 55.5136C117.616 55.5444 117.445 55.5752 117.259 55.6061C117.073 55.6369 116.872 55.6831 116.655 55.7447C116.438 55.791 116.252 55.8834 116.066 55.9758C115.896 56.0837 115.741 56.2224 115.617 56.3918C115.509 56.5613 115.447 56.777 115.447 57.0544V57.1776C115.447 57.4088 115.493 57.6245 115.586 57.8094C115.679 57.9943 115.803 58.1483 115.958 58.2716C116.113 58.3949 116.283 58.4873 116.485 58.5489C116.686 58.6106 116.888 58.6414 117.089 58.6414H117.182C117.616 58.6414 117.988 58.5027 118.298 58.2408L118.561 58.4873C118.669 58.5489 118.824 58.5952 118.995 58.626H119.072L119.351 58.5181L119.444 58.2408L119.367 58.0097V58.0405ZM118.065 57.0236C118.065 57.2701 117.972 57.4704 117.802 57.6399C117.631 57.8094 117.43 57.8864 117.182 57.8864H117.089C116.826 57.8864 116.624 57.8248 116.454 57.6861C116.299 57.5628 116.206 57.3779 116.206 57.1622V57.0852C116.206 56.9157 116.268 56.777 116.392 56.6846C116.516 56.5922 116.671 56.5151 116.857 56.4535C117.042 56.3919 117.244 56.3456 117.461 56.3302C117.678 56.2994 117.879 56.2532 118.065 56.207V57.0082V57.0236ZM122.853 58.0251L122.574 57.8864C122.419 57.8864 122.279 57.8094 122.156 57.7169C122.032 57.6245 121.97 57.4858 121.97 57.3009V54.4197H122.527L122.822 54.2964L122.915 54.0345L122.822 53.7725L122.527 53.6493H121.97V51.8774L121.846 51.5846L121.582 51.4922L121.319 51.5846L121.195 51.8774V53.6493H120.839L120.544 53.7725L120.436 54.0345L120.544 54.2964L120.839 54.4197H121.195V57.3163C121.195 57.5012 121.226 57.6707 121.303 57.8402C121.365 57.9943 121.474 58.1483 121.598 58.2716C121.722 58.3949 121.861 58.4873 122.032 58.5643C122.202 58.626 122.372 58.6722 122.558 58.6722L122.853 58.5489L122.946 58.287L122.853 58.0251ZM125.378 51.8774L125.254 51.5846L124.991 51.4922L124.728 51.5846L124.604 51.8774V52.1085L124.728 52.4012L124.991 52.4937L125.254 52.4012L125.378 52.1085V51.8774ZM125.378 54.0191L125.254 53.7263L124.991 53.6339L124.728 53.7263L124.604 54.0191V58.3024L124.728 58.5952L124.991 58.6876L125.254 58.5952L125.378 58.3024V54.0191ZM130.631 55.2671C130.631 55.036 130.584 54.8357 130.507 54.6354C130.429 54.4351 130.305 54.2502 130.15 54.1115C129.996 53.9574 129.825 53.8496 129.624 53.7571C129.422 53.6647 129.205 53.6339 128.973 53.6339H128.864C128.632 53.6339 128.415 53.6801 128.214 53.7571C128.012 53.8496 127.842 53.9574 127.687 54.1115C127.532 54.2656 127.424 54.4351 127.331 54.6354C127.253 54.8357 127.207 55.0514 127.207 55.2671V57.0236C127.207 57.2547 127.253 57.4704 127.331 57.6707C127.424 57.871 127.532 58.0405 127.687 58.1946C127.842 58.3332 128.012 58.4565 128.214 58.5335C128.415 58.626 128.632 58.6568 128.864 58.6568H128.973C129.19 58.6568 129.407 58.6106 129.624 58.5335C129.825 58.4411 129.996 58.3332 130.15 58.1946C130.305 58.0405 130.429 57.871 130.507 57.6707C130.6 57.4704 130.631 57.2547 130.631 57.0236V55.2671ZM129.856 57.0236C129.856 57.2547 129.779 57.4704 129.593 57.6399C129.422 57.8094 129.221 57.9018 128.973 57.9018H128.88C128.632 57.9018 128.415 57.8094 128.245 57.6399C128.074 57.4704 127.981 57.2701 127.981 57.0236V55.2671C127.981 55.036 128.059 54.8203 128.245 54.6508C128.415 54.4813 128.617 54.3888 128.864 54.3888H128.973C129.205 54.3888 129.422 54.4813 129.593 54.6508C129.763 54.8203 129.856 55.0206 129.856 55.2671V57.0236ZM135.837 55.2671C135.837 54.9897 135.79 54.7432 135.697 54.5429C135.604 54.3426 135.496 54.1577 135.341 54.0191C135.186 53.8804 135.016 53.7879 134.814 53.7263C134.613 53.6647 134.411 53.6339 134.194 53.6339H134.101C133.916 53.6339 133.761 53.6647 133.59 53.7109C133.435 53.7725 133.311 53.8342 133.203 53.942L133.063 53.7109L132.815 53.6339L132.537 53.7417L132.413 54.0191V58.3024L132.537 58.5952L132.8 58.6876L133.063 58.5952L133.187 58.3024V55.2825C133.187 55.036 133.265 54.8357 133.451 54.6662C133.621 54.4967 133.838 54.4197 134.07 54.4197H134.163C134.411 54.4197 134.613 54.5121 134.783 54.6816C134.954 54.8511 135.047 55.0514 135.047 55.2979V58.3178L135.171 58.6106L135.434 58.703L135.697 58.6106L135.821 58.3178V55.2979L135.837 55.2671ZM141.368 58.0405L141.12 57.9018C140.95 57.871 140.857 57.7631 140.857 57.5628V55.19C140.857 54.9743 140.81 54.7586 140.733 54.5737C140.655 54.3888 140.532 54.2194 140.392 54.0653C140.253 53.9266 140.082 53.8188 139.881 53.7263C139.679 53.6493 139.478 53.6031 139.245 53.6031H139.168C139.029 53.6031 138.889 53.6185 138.75 53.6493C138.61 53.6801 138.471 53.7263 138.331 53.8033L137.944 54.0961C137.82 54.2194 137.727 54.3734 137.634 54.5583L137.603 54.7432L137.727 55.0052L137.99 55.0976L138.192 55.0514L138.347 54.8973C138.44 54.7278 138.548 54.5891 138.672 54.5121C138.796 54.4197 138.967 54.3888 139.184 54.3888H139.261C139.493 54.3888 139.679 54.4505 139.85 54.5737C140.02 54.697 140.098 54.9127 140.098 55.2209V55.3133L140.067 55.3904C140.02 55.452 139.927 55.4828 139.788 55.5136C139.633 55.5444 139.462 55.5752 139.276 55.6061C139.091 55.6369 138.889 55.6831 138.672 55.7447C138.455 55.791 138.269 55.8834 138.083 55.9758C137.898 56.0837 137.758 56.2224 137.634 56.3918C137.51 56.5613 137.464 56.777 137.464 57.0544V57.1776C137.464 57.4088 137.51 57.6245 137.603 57.8094C137.696 57.9943 137.82 58.1483 137.975 58.2716C138.13 58.3949 138.3 58.4873 138.502 58.5489C138.703 58.6106 138.905 58.6414 139.106 58.6414H139.199C139.633 58.6414 140.005 58.5027 140.315 58.2408L140.578 58.4873C140.686 58.5489 140.826 58.5952 141.012 58.626H141.089L141.368 58.5181L141.461 58.2408L141.384 58.0097L141.368 58.0405ZM140.067 57.0236C140.067 57.2701 139.989 57.4704 139.803 57.6399C139.633 57.8094 139.416 57.8864 139.184 57.8864H139.091C138.827 57.8864 138.626 57.8248 138.455 57.6861C138.3 57.5628 138.223 57.3779 138.223 57.1622V57.0852C138.223 56.9157 138.285 56.777 138.409 56.6846C138.533 56.5922 138.688 56.5151 138.858 56.4535C139.044 56.3919 139.245 56.3456 139.462 56.3302C139.679 56.2994 139.881 56.2532 140.067 56.207V57.0082V57.0236ZM144.653 58.0097L144.359 57.8864C144.204 57.8864 144.064 57.8248 143.956 57.7169C143.847 57.6091 143.785 57.4858 143.785 57.3163V51.8774L143.661 51.5846L143.398 51.4922L143.134 51.5846L143.011 51.8774V57.3317C143.011 57.5166 143.042 57.6861 143.119 57.8556C143.181 58.0097 143.289 58.1637 143.413 58.287C143.537 58.4103 143.677 58.5027 143.847 58.5798C144.018 58.6414 144.188 58.6876 144.374 58.6876L144.668 58.5643L144.761 58.3024L144.668 58.0405L144.653 58.0097ZM149.58 55.2825C149.58 55.0514 149.534 54.8203 149.456 54.62C149.363 54.4197 149.255 54.2502 149.1 54.0961C148.945 53.942 148.774 53.8342 148.573 53.7571C148.371 53.6801 148.155 53.6339 147.938 53.6339H147.829C147.597 53.6339 147.395 53.6801 147.178 53.7571C146.977 53.8496 146.807 53.9574 146.652 54.1115C146.497 54.2656 146.388 54.4351 146.295 54.6354C146.202 54.8357 146.171 55.0514 146.171 55.2671V57.0236C146.171 57.2547 146.218 57.4704 146.295 57.6707C146.373 57.871 146.497 58.0405 146.652 58.1946C146.807 58.3332 146.977 58.4565 147.178 58.5335C147.38 58.626 147.597 58.6568 147.829 58.6568H147.938C148.294 58.6568 148.588 58.5643 148.852 58.3794C149.115 58.1946 149.317 57.9634 149.441 57.6861L149.487 57.5166L149.363 57.2239L149.084 57.116L148.898 57.1776L148.759 57.3625C148.697 57.5012 148.588 57.6245 148.449 57.7323C148.31 57.8402 148.139 57.8864 147.953 57.8864H147.845C147.612 57.8864 147.395 57.794 147.225 57.6245C147.054 57.455 146.962 57.2547 146.962 57.0082V56.4997H149.208L149.487 56.3764L149.596 56.0991V55.2671L149.58 55.2825ZM148.79 55.7909H146.946V55.2825C146.946 55.036 147.039 54.8203 147.209 54.6508C147.38 54.4813 147.597 54.4043 147.829 54.4043H147.938C148.17 54.4043 148.356 54.4967 148.542 54.6508C148.712 54.8203 148.805 55.036 148.805 55.2825V55.7909H148.79Z" fill="#BD202E"/>
<path d="M77.5167 42.3096C77.5167 42.0477 77.4703 41.7858 77.3618 41.5547C77.2533 41.3236 77.1139 41.1233 76.9435 40.9384C76.773 40.7689 76.5561 40.6302 76.3237 40.5223C76.0913 40.4145 75.8279 40.3683 75.5645 40.3683H73.8911L73.6122 40.4915L73.4883 40.7689V47.0552L73.6122 47.3326L73.8911 47.4558H75.5645C75.8279 47.4558 76.0758 47.4096 76.3237 47.3018C76.5561 47.1939 76.773 47.0552 76.9435 46.8857C77.1139 46.7163 77.2533 46.5006 77.3618 46.2694C77.4703 46.0383 77.5167 45.7764 77.5167 45.5145V42.3251V42.3096ZM76.742 45.4991C76.742 45.6685 76.711 45.8226 76.6491 45.9613L76.4012 46.3311L76.0293 46.5776C75.8899 46.6392 75.7349 46.67 75.5645 46.67H74.294V41.1541H75.58C75.7504 41.1541 75.8899 41.1849 76.0448 41.2465L76.4012 41.493C76.5096 41.6009 76.5871 41.7242 76.6491 41.8628C76.711 42.0015 76.742 42.1556 76.742 42.3251V45.4991ZM82.7382 44.1124C82.7382 43.8812 82.6918 43.6501 82.6143 43.4498C82.5213 43.2495 82.4129 43.08 82.2579 42.926C82.103 42.7719 81.9325 42.664 81.7311 42.5716C81.5297 42.4945 81.3128 42.4483 81.0804 42.4483H80.9719C80.7395 42.4483 80.5226 42.4945 80.3212 42.5716C80.1197 42.664 79.9493 42.7719 79.7944 42.926C79.6394 43.08 79.531 43.2495 79.438 43.4498C79.3605 43.6501 79.314 43.8658 79.314 44.0969V45.8534C79.314 46.0845 79.3605 46.3003 79.438 46.5006C79.531 46.7009 79.6394 46.8703 79.7944 47.0244C79.9493 47.1785 80.1197 47.2863 80.3212 47.3788C80.5226 47.4558 80.7395 47.5021 80.9719 47.5021H81.0804C81.4367 47.5021 81.7311 47.4096 81.9945 47.2401C82.2579 47.0552 82.4593 46.8241 82.5833 46.5314L82.6298 46.3619L82.5058 46.0691L82.2269 45.9613L82.0255 46.0229L81.8861 46.2078C81.8241 46.3465 81.7156 46.4697 81.5762 46.5776C81.4367 46.6854 81.2818 46.7317 81.0804 46.7317H80.9719C80.724 46.7317 80.5226 46.6546 80.3522 46.4851C80.1817 46.3157 80.0888 46.1154 80.0888 45.8688V45.345H82.3354L82.6143 45.2217L82.7227 44.9598V44.1124H82.7382ZM81.9635 44.6208H80.1043V44.1124C80.1043 43.8658 80.1972 43.6655 80.3676 43.496C80.5381 43.3266 80.755 43.2341 80.9874 43.2341H81.0959C81.3283 43.2341 81.5142 43.3266 81.7001 43.496C81.8706 43.6655 81.9635 43.8812 81.9635 44.1278V44.6362V44.6208ZM87.8048 42.8335L87.6809 42.5408L87.4174 42.4483L87.1541 42.5408L87.0301 42.8335V45.838C87.0301 46.0691 86.9371 46.2848 86.7667 46.4543C86.5963 46.6238 86.3948 46.7009 86.1469 46.7009H86.054C85.8061 46.7009 85.6046 46.6238 85.4342 46.4543C85.2638 46.2848 85.1708 46.0845 85.1708 45.838V42.8335L85.0469 42.5408L84.7835 42.4483L84.5201 42.5408L84.3961 42.8335V45.8534C84.3961 46.1462 84.4426 46.3927 84.5356 46.593C84.6285 46.7933 84.737 46.9628 84.8919 47.1015C85.0469 47.2401 85.2173 47.3326 85.4187 47.3942C85.6201 47.4558 85.8371 47.4866 86.054 47.4866H86.1469C86.3174 47.4866 86.4878 47.4558 86.6427 47.4096C86.7977 47.3634 86.9216 47.2863 87.0301 47.1939L87.1695 47.425L87.4174 47.5021L87.6809 47.4096L87.8048 47.1323V42.8643V42.8335ZM91.7868 46.8395L91.5079 46.7009C91.3529 46.7009 91.2135 46.6238 91.0895 46.5314C90.9656 46.4389 90.9036 46.3003 90.9036 46.1154V43.2341H91.4614L91.7558 43.1108L91.8488 42.8489L91.7558 42.587L91.4614 42.4637H90.9036V40.6918L90.7797 40.3991L90.5163 40.3066L90.2529 40.3991L90.1289 40.6918V42.4637H89.7725L89.4782 42.587L89.3852 42.8489L89.4782 43.1108L89.7725 43.2341H90.1289V46.1308C90.1289 46.3157 90.1599 46.4851 90.2374 46.6546C90.2994 46.8241 90.4078 46.9628 90.5318 47.086C90.6557 47.2093 90.7952 47.3018 90.9656 47.3788C91.136 47.4404 91.3065 47.4866 91.4924 47.4866L91.7868 47.3634L91.8797 47.1015L91.7868 46.8395ZM96.8533 46.0229C96.8533 45.6839 96.7914 45.4374 96.6519 45.2371C96.5125 45.0522 96.3575 44.8981 96.1561 44.7903C95.9702 44.6824 95.7533 44.6054 95.5209 44.5592C95.2884 44.513 95.0715 44.4513 94.8856 44.4051C94.6842 44.3589 94.5292 44.2818 94.3898 44.2048C94.2503 44.1278 94.1884 43.9891 94.1884 43.8196V43.7888C94.1884 43.6347 94.2813 43.5115 94.4208 43.4036C94.5757 43.2957 94.7926 43.2341 95.087 43.2341H95.1335C95.3659 43.2341 95.5518 43.2649 95.6758 43.3266L96.0322 43.5115L96.2646 43.5731L96.528 43.4652L96.6364 43.2033L96.497 42.9105L96.311 42.7873L96.0322 42.6486C95.9237 42.6024 95.7842 42.5562 95.6448 42.5254C95.4899 42.4945 95.3349 42.4791 95.149 42.4791H95.118C94.9476 42.4791 94.7771 42.4945 94.5757 42.5408C94.3898 42.587 94.2039 42.664 94.0334 42.7565C93.863 42.8643 93.7235 42.9876 93.5996 43.1571C93.4911 43.3266 93.4291 43.5269 93.4291 43.7734C93.4291 44.0969 93.4911 44.3435 93.6306 44.513C93.77 44.6824 93.925 44.8211 94.1264 44.9136C94.3278 45.006 94.5292 45.083 94.7616 45.1293C94.9941 45.1755 95.211 45.2217 95.4124 45.2833C95.6138 45.345 95.7688 45.422 95.9082 45.5299C96.0477 45.6377 96.1096 45.7918 96.1096 46.0075V46.0383C96.1096 46.2078 96.0167 46.3619 95.8462 46.516C95.6758 46.6546 95.4434 46.7317 95.118 46.7317H95.056C94.8701 46.7317 94.6687 46.67 94.4673 46.5468C94.2658 46.4235 94.1109 46.2694 93.9714 46.1L93.801 45.9613L93.6151 45.9305L93.3362 46.0383L93.2122 46.3157L93.2587 46.516C93.3362 46.67 93.4446 46.8087 93.5841 46.9474C93.7235 47.0706 93.863 47.1785 94.0179 47.2709C94.1729 47.3634 94.3433 47.425 94.5137 47.4712C94.6842 47.5175 94.8546 47.5483 95.025 47.5483H95.087C95.3039 47.5483 95.5054 47.5175 95.7223 47.4558C95.9392 47.3942 96.1251 47.3018 96.2956 47.1785C96.466 47.0552 96.6054 46.9166 96.7139 46.7317C96.8223 46.5622 96.8688 46.3465 96.8688 46.1154V46.0691L96.8533 46.0229ZM101.734 45.5453L101.471 45.4528L101.207 45.5453L101.083 45.8534C101.083 46.0845 100.975 46.3003 100.82 46.4697C100.649 46.6392 100.448 46.7163 100.216 46.7163H100.123C99.8747 46.7163 99.6733 46.6392 99.5028 46.4697C99.3324 46.3003 99.2394 46.1 99.2394 45.8534V44.0969C99.2394 43.8504 99.3324 43.6501 99.5028 43.4806C99.6733 43.3111 99.8747 43.2187 100.123 43.2187H100.231C100.463 43.2187 100.665 43.2957 100.835 43.4652C101.006 43.6193 101.099 43.835 101.099 44.0969L101.223 44.3897L101.486 44.4821L101.749 44.3897L101.873 44.0969C101.873 43.8658 101.827 43.6655 101.734 43.4498C101.641 43.2495 101.533 43.08 101.378 42.926C101.223 42.7719 101.052 42.664 100.851 42.5716C100.649 42.4945 100.432 42.4483 100.216 42.4483H100.107C99.8747 42.4483 99.6578 42.4945 99.4563 42.5716C99.2549 42.664 99.0845 42.7719 98.9295 42.926C98.7746 43.08 98.6661 43.2495 98.5732 43.4498C98.4802 43.6501 98.4337 43.8658 98.4337 44.0969V45.8534C98.4337 46.0845 98.4802 46.3003 98.5577 46.5006C98.6507 46.7009 98.7591 46.8703 98.9141 47.0244C99.069 47.1785 99.2394 47.2863 99.4409 47.3788C99.6423 47.4558 99.8592 47.5021 100.092 47.5021H100.2C100.417 47.5021 100.634 47.4558 100.835 47.3634C101.037 47.2863 101.207 47.1631 101.362 47.009C101.517 46.8549 101.626 46.6854 101.718 46.4851C101.796 46.2848 101.842 46.0691 101.842 45.838L101.718 45.5299L101.734 45.5453ZM107.002 44.0969C107.002 43.8658 106.955 43.6655 106.878 43.4498C106.801 43.2495 106.677 43.08 106.522 42.926C106.367 42.7719 106.196 42.664 105.995 42.5716C105.793 42.4945 105.577 42.4483 105.36 42.4483H105.282C105.096 42.4483 104.926 42.4791 104.771 42.5254C104.6 42.5716 104.476 42.6486 104.383 42.7565V40.7072L104.26 40.4145L103.996 40.322L103.733 40.4145L103.609 40.7072V47.1169L103.733 47.4096L103.996 47.5021L104.26 47.4096L104.383 47.1169V44.0507L104.461 43.7118L104.678 43.4498L104.972 43.2957L105.313 43.2495L105.638 43.2957L105.933 43.4498L106.15 43.7272C106.196 43.835 106.227 43.9583 106.227 44.1124V47.1323L106.351 47.425L106.615 47.5175L106.878 47.425L107.002 47.1323V44.1124V44.0969ZM112.1 44.1124C112.1 43.8812 112.053 43.6501 111.976 43.4498C111.883 43.2495 111.774 43.08 111.619 42.926C111.464 42.7719 111.294 42.664 111.092 42.5716C110.891 42.4791 110.674 42.4483 110.442 42.4483H110.333C110.116 42.4483 109.899 42.4945 109.698 42.5716C109.497 42.664 109.326 42.7719 109.171 42.926C109.016 43.08 108.892 43.2495 108.815 43.4498C108.737 43.6501 108.691 43.8658 108.691 44.0969V45.8534C108.691 46.0845 108.737 46.3003 108.815 46.5006C108.892 46.7009 109.016 46.8703 109.171 47.0244C109.326 47.1785 109.497 47.2863 109.698 47.3788C109.899 47.4558 110.116 47.5021 110.333 47.5021H110.442C110.798 47.5021 111.108 47.4096 111.371 47.2401C111.635 47.0552 111.821 46.8241 111.96 46.5314L112.007 46.3619L111.883 46.0691L111.604 45.9613L111.402 46.0229L111.263 46.2078C111.201 46.3465 111.092 46.4697 110.953 46.5776C110.813 46.6854 110.659 46.7317 110.457 46.7317H110.349C110.116 46.7317 109.899 46.6546 109.729 46.4851C109.558 46.3157 109.466 46.1154 109.466 45.8688V45.345H111.712L111.991 45.2217L112.1 44.9598V44.1124ZM111.325 44.6208H109.466V44.1124C109.466 43.8658 109.558 43.6655 109.729 43.496C109.899 43.3266 110.101 43.2341 110.349 43.2341H110.457C110.69 43.2341 110.875 43.3266 111.061 43.496C111.232 43.6655 111.325 43.8812 111.325 44.1278V44.6362V44.6208ZM121.21 43.9737L121.086 43.6963L120.823 43.5731H119.351L119.056 43.6963L118.963 43.9583L119.056 44.2202L119.351 44.3435H120.435V45.5299C120.435 45.6993 120.404 45.838 120.342 45.9767L120.094 46.3465L119.723 46.593C119.583 46.6546 119.428 46.6854 119.273 46.6854H119.165C119.01 46.6854 118.855 46.6546 118.7 46.593L118.328 46.3465L118.08 45.9767C118.018 45.838 117.987 45.6839 117.987 45.5145V42.2018C117.987 42.0477 118.018 41.8936 118.08 41.755C118.142 41.6163 118.22 41.493 118.328 41.3852L118.7 41.1387C118.839 41.077 118.994 41.0462 119.165 41.0462H119.273C119.614 41.0462 119.878 41.1387 120.063 41.339C120.265 41.5239 120.389 41.7704 120.435 42.0631L120.575 42.3096L120.823 42.3867L121.086 42.2942L121.21 42.0169V41.9553C121.179 41.7087 121.102 41.493 120.993 41.2927C120.885 41.0924 120.73 40.9075 120.559 40.7689C120.389 40.6302 120.187 40.5069 119.955 40.4299C119.738 40.3375 119.49 40.3066 119.258 40.3066H119.149C118.886 40.3066 118.623 40.3529 118.39 40.4607C118.158 40.5532 117.941 40.6918 117.77 40.8767C117.6 41.0462 117.46 41.2465 117.352 41.493C117.244 41.7242 117.197 41.9861 117.197 42.248V45.5453C117.197 45.8226 117.244 46.0691 117.352 46.3003C117.46 46.5314 117.6 46.7317 117.77 46.9166C117.941 47.086 118.142 47.2247 118.39 47.3326C118.638 47.425 118.886 47.4866 119.149 47.4866H119.258C119.521 47.4866 119.785 47.4404 120.017 47.3326C120.249 47.2401 120.466 47.1015 120.637 46.9166C120.807 46.7471 120.947 46.5314 121.055 46.3003C121.164 46.0691 121.21 45.8072 121.21 45.5453V43.9583V43.9737ZM126.432 44.1124C126.432 43.8812 126.385 43.6501 126.308 43.4498C126.215 43.2495 126.106 43.08 125.951 42.926C125.796 42.7719 125.626 42.664 125.424 42.5716C125.223 42.4945 125.006 42.4483 124.774 42.4483H124.665C124.433 42.4483 124.216 42.4945 124.014 42.5716C123.813 42.664 123.627 42.7719 123.488 42.926C123.333 43.08 123.224 43.2495 123.131 43.4498C123.038 43.6501 123.007 43.8658 123.007 44.0969V45.8534C123.007 46.0845 123.054 46.3003 123.131 46.5006C123.224 46.7009 123.333 46.8703 123.488 47.0244C123.643 47.1785 123.813 47.2863 124.014 47.3788C124.216 47.4558 124.433 47.5021 124.665 47.5021H124.774C125.13 47.5021 125.424 47.4096 125.688 47.2401C125.951 47.0552 126.153 46.8241 126.277 46.5314L126.308 46.3619L126.184 46.0691L125.905 45.9613L125.703 46.0229L125.564 46.2078C125.502 46.3465 125.393 46.4697 125.254 46.5776C125.13 46.6854 124.96 46.7317 124.758 46.7317H124.65C124.417 46.7317 124.2 46.6546 124.03 46.4851C123.86 46.3157 123.767 46.1154 123.767 45.8688V45.345H126.013L126.292 45.2217L126.401 44.9598V44.1124H126.432ZM125.641 44.6208H123.782V44.1124C123.782 43.8658 123.875 43.6655 124.045 43.496C124.216 43.3266 124.433 43.2341 124.665 43.2341H124.774C125.006 43.2341 125.207 43.3266 125.378 43.496C125.548 43.6655 125.641 43.8812 125.641 44.1278V44.6362V44.6208ZM131.545 46.0229C131.545 45.6839 131.483 45.4374 131.343 45.2371C131.204 45.0522 131.049 44.8981 130.847 44.7903C130.646 44.6824 130.444 44.6054 130.212 44.5592C129.98 44.513 129.763 44.4513 129.561 44.4051C129.36 44.3589 129.205 44.2818 129.066 44.2048C128.926 44.1278 128.864 43.9891 128.864 43.8196V43.7888C128.864 43.6347 128.942 43.5115 129.097 43.4036C129.251 43.2957 129.468 43.2341 129.763 43.2341H129.809C130.042 43.2341 130.228 43.2649 130.352 43.3266L130.708 43.5115L130.925 43.5731L131.188 43.4652L131.297 43.2033L131.157 42.9105L130.971 42.7873L130.677 42.6486C130.568 42.6024 130.429 42.5562 130.29 42.5254C130.15 42.4945 129.98 42.4791 129.809 42.4791H129.763C129.592 42.4791 129.422 42.4945 129.22 42.5408C129.019 42.587 128.849 42.664 128.678 42.7565C128.508 42.8643 128.368 42.9876 128.26 43.1571C128.151 43.3266 128.089 43.5269 128.089 43.7734C128.089 44.0969 128.151 44.3435 128.291 44.513C128.43 44.6824 128.585 44.8211 128.787 44.9136C128.988 45.006 129.189 45.083 129.437 45.1293C129.67 45.1755 129.887 45.2217 130.073 45.2833C130.274 45.345 130.429 45.422 130.568 45.5299C130.708 45.6377 130.77 45.7918 130.77 46.0075V46.0383C130.77 46.2078 130.677 46.3619 130.506 46.516C130.336 46.6546 130.088 46.7317 129.778 46.7317H129.716C129.53 46.7317 129.329 46.67 129.127 46.5468C128.926 46.4235 128.756 46.2694 128.632 46.1L128.461 45.9613L128.275 45.9305L127.996 46.0383L127.872 46.3157L127.934 46.516C128.012 46.67 128.12 46.8087 128.244 46.9474C128.368 47.0706 128.523 47.1785 128.678 47.2709C128.833 47.3634 129.004 47.425 129.174 47.4712C129.344 47.5175 129.515 47.5483 129.685 47.5483H129.747C129.964 47.5483 130.166 47.5175 130.383 47.4558C130.599 47.3942 130.785 47.3018 130.956 47.1785C131.126 47.0552 131.266 46.9166 131.374 46.7317C131.483 46.5622 131.529 46.3465 131.529 46.1154V46.0691L131.545 46.0229ZM136.534 44.1124C136.534 43.8812 136.487 43.6501 136.41 43.4498C136.332 43.2495 136.208 43.08 136.053 42.926C135.898 42.7719 135.728 42.664 135.527 42.5716C135.325 42.4945 135.108 42.4483 134.891 42.4483H134.783C134.55 42.4483 134.333 42.4945 134.132 42.5716C133.931 42.664 133.76 42.7719 133.605 42.926C133.45 43.08 133.342 43.2495 133.249 43.4498C133.171 43.6501 133.125 43.8658 133.125 44.0969V45.8534C133.125 46.0845 133.171 46.3003 133.249 46.5006C133.326 46.7009 133.45 46.8703 133.605 47.0244C133.76 47.1785 133.931 47.2863 134.132 47.3788C134.333 47.4558 134.55 47.5021 134.783 47.5021H134.891C135.232 47.5021 135.542 47.4096 135.805 47.2401C136.069 47.0552 136.27 46.8241 136.394 46.5314L136.441 46.3619L136.317 46.0691L136.038 45.9613L135.836 46.0229L135.697 46.2078C135.62 46.3465 135.527 46.4697 135.387 46.5776C135.263 46.6854 135.093 46.7317 134.891 46.7317H134.783C134.535 46.7317 134.333 46.6546 134.163 46.4851C133.993 46.3157 133.915 46.1154 133.915 45.8688V45.345H136.162L136.441 45.2217L136.565 44.9598V44.1124H136.534ZM135.759 44.6208H133.915V44.1124C133.915 43.8658 133.993 43.6655 134.179 43.496C134.349 43.3266 134.566 43.2341 134.798 43.2341H134.907C135.139 43.2341 135.341 43.3266 135.511 43.496C135.681 43.6655 135.774 43.8812 135.774 44.1278V44.6362L135.759 44.6208ZM139.927 46.8395L139.632 46.7163C139.478 46.7163 139.338 46.6546 139.23 46.5468C139.121 46.4389 139.059 46.3003 139.059 46.1462V40.7072L138.935 40.4145L138.672 40.322L138.408 40.4145L138.284 40.7072V46.1616C138.284 46.3465 138.315 46.516 138.393 46.6854C138.455 46.8549 138.563 46.9936 138.687 47.1169C138.811 47.2401 138.951 47.3326 139.121 47.4096C139.292 47.4712 139.462 47.5175 139.648 47.5175L139.942 47.3942L140.035 47.1323L139.942 46.8703L139.927 46.8395ZM143.165 46.8395L142.871 46.7163C142.716 46.7163 142.576 46.6546 142.468 46.5468C142.359 46.4389 142.297 46.3003 142.297 46.1462V40.7072L142.174 40.4145L141.91 40.322L141.647 40.4145L141.523 40.7072V46.1616C141.523 46.3465 141.554 46.516 141.631 46.6854C141.709 46.8549 141.802 46.9936 141.926 47.1169C142.05 47.2401 142.189 47.3326 142.359 47.4096C142.53 47.4712 142.7 47.5175 142.886 47.5175L143.181 47.3942L143.274 47.1323L143.181 46.8703L143.165 46.8395ZM148.247 46.0229C148.247 45.6839 148.185 45.4374 148.046 45.2371C147.906 45.0522 147.751 44.8981 147.55 44.7903C147.364 44.6824 147.147 44.6054 146.915 44.5592C146.682 44.513 146.465 44.4513 146.264 44.4051C146.063 44.3589 145.908 44.2818 145.768 44.2048C145.629 44.1278 145.567 43.9891 145.567 43.8196V43.7888C145.567 43.6347 145.66 43.5115 145.799 43.4036C145.954 43.2957 146.171 43.2341 146.465 43.2341H146.512C146.744 43.2341 146.93 43.2649 147.054 43.3266L147.41 43.5115L147.643 43.5731L147.906 43.4652L148.015 43.2033L147.875 42.9105L147.689 42.7873L147.41 42.6486C147.302 42.6024 147.163 42.5562 147.023 42.5254C146.868 42.4945 146.713 42.4791 146.527 42.4791H146.481C146.326 42.4791 146.14 42.4945 145.939 42.5408C145.737 42.587 145.567 42.664 145.396 42.7565C145.226 42.8643 145.086 42.9876 144.962 43.1571C144.838 43.3266 144.792 43.5269 144.792 43.7734C144.792 44.0969 144.854 44.3435 144.993 44.513C145.133 44.6824 145.288 44.8211 145.489 44.9136C145.691 45.006 145.892 45.083 146.124 45.1293C146.357 45.1755 146.574 45.2217 146.775 45.2833C146.977 45.345 147.132 45.422 147.271 45.5299C147.41 45.6377 147.472 45.7918 147.472 46.0075V46.0383C147.472 46.2078 147.38 46.3619 147.209 46.516C147.039 46.6546 146.791 46.7317 146.481 46.7317H146.434C146.248 46.7317 146.047 46.67 145.846 46.5468C145.644 46.4235 145.489 46.2694 145.35 46.1L145.179 45.9613L144.993 45.9305L144.715 46.0383L144.591 46.3157L144.653 46.516C144.73 46.67 144.838 46.8087 144.962 46.9474C145.102 47.0706 145.241 47.1785 145.396 47.2709C145.551 47.3634 145.722 47.425 145.892 47.4712C146.063 47.5175 146.233 47.5483 146.403 47.5483H146.465C146.682 47.5483 146.884 47.5175 147.101 47.4558C147.318 47.3942 147.503 47.3018 147.674 47.1785C147.844 47.0552 147.984 46.9166 148.092 46.7317C148.201 46.5622 148.247 46.3465 148.247 46.1154V46.0691V46.0229ZM153.112 45.5453L152.849 45.4528L152.586 45.5453L152.462 45.8534C152.462 46.0845 152.353 46.3003 152.198 46.4697C152.028 46.6392 151.826 46.7163 151.594 46.7163H151.501C151.253 46.7163 151.036 46.6392 150.866 46.4697C150.695 46.3003 150.602 46.1 150.602 45.8534V44.0969C150.602 43.8504 150.695 43.6501 150.866 43.4806C151.036 43.3111 151.238 43.2187 151.485 43.2187H151.594C151.826 43.2187 152.028 43.2957 152.198 43.4652C152.369 43.6193 152.446 43.835 152.462 44.0969L152.586 44.3897L152.849 44.4821L153.112 44.3897L153.236 44.0969C153.236 43.8658 153.19 43.6655 153.097 43.4498C153.004 43.2495 152.895 43.08 152.74 42.926C152.586 42.7719 152.415 42.664 152.214 42.5716C152.012 42.4945 151.795 42.4483 151.578 42.4483H151.47C151.238 42.4483 151.021 42.4945 150.835 42.5716C150.633 42.664 150.463 42.7719 150.308 42.926C150.153 43.08 150.044 43.2495 149.952 43.4498C149.859 43.6501 149.812 43.8658 149.812 44.0969V45.8534C149.812 46.0845 149.859 46.3003 149.936 46.5006C150.013 46.7009 150.137 46.8703 150.292 47.0244C150.447 47.1785 150.618 47.2863 150.819 47.3788C151.021 47.4558 151.238 47.5021 151.454 47.5021H151.563C151.78 47.5021 151.997 47.4558 152.198 47.3634C152.4 47.2863 152.57 47.1631 152.725 47.009C152.88 46.8549 152.988 46.6854 153.081 46.4851C153.159 46.2848 153.205 46.0691 153.205 45.838L153.081 45.5299L153.112 45.5453ZM158.287 44.0969C158.287 43.8658 158.241 43.6655 158.163 43.4498C158.07 43.2495 157.962 43.08 157.807 42.926C157.652 42.7719 157.482 42.664 157.28 42.5716C157.079 42.4945 156.862 42.4483 156.629 42.4483H156.552C156.382 42.4483 156.196 42.4791 156.041 42.5254C155.87 42.5716 155.746 42.6486 155.653 42.7565V40.7072L155.529 40.4145L155.266 40.322L155.003 40.4145L154.879 40.7072V47.1169L155.003 47.4096L155.266 47.5021L155.529 47.4096L155.653 47.1169V44.0507L155.731 43.7118L155.948 43.4498L156.242 43.2957L156.583 43.2495L156.908 43.2957L157.203 43.4498L157.42 43.7272C157.466 43.835 157.497 43.9583 157.497 44.1124V47.1323L157.621 47.425L157.884 47.5175L158.148 47.425L158.272 47.1323V44.1124L158.287 44.0969ZM163.803 46.8703L163.555 46.7317C163.369 46.7009 163.292 46.593 163.292 46.3927V44.0199C163.292 43.8042 163.245 43.6039 163.168 43.4036C163.09 43.2187 162.982 43.0492 162.827 42.8951C162.688 42.7565 162.517 42.6332 162.316 42.5562C162.114 42.4791 161.897 42.4329 161.681 42.4329H161.603C161.464 42.4329 161.324 42.4329 161.185 42.4791C161.045 42.5099 160.906 42.5562 160.766 42.6332L160.379 42.926C160.255 43.0492 160.162 43.2033 160.085 43.3882L160.038 43.5731L160.162 43.835L160.426 43.9275L160.627 43.8812L160.782 43.7272C160.875 43.5577 160.983 43.4344 161.107 43.342C161.231 43.2495 161.402 43.2187 161.603 43.2187H161.681C161.913 43.2187 162.099 43.2803 162.269 43.4036C162.44 43.5269 162.517 43.7426 162.517 44.0507V44.1432L162.486 44.2202C162.44 44.2664 162.347 44.3127 162.207 44.3435C162.052 44.3743 161.897 44.4051 161.696 44.4359C161.51 44.4667 161.293 44.513 161.092 44.5592C160.875 44.6208 160.689 44.6978 160.503 44.8057C160.333 44.9136 160.178 45.0522 160.054 45.2217C159.945 45.3912 159.883 45.6223 159.883 45.8842V46.0075C159.883 46.2386 159.93 46.4543 160.023 46.6392C160.116 46.8241 160.24 46.9782 160.395 47.1015C160.549 47.2247 160.72 47.3172 160.921 47.3788C161.123 47.4404 161.324 47.4712 161.526 47.4712H161.619C162.052 47.4712 162.424 47.3326 162.734 47.0706L162.998 47.3172C163.106 47.3942 163.245 47.4404 163.431 47.4558H163.509L163.788 47.348L163.881 47.0706L163.803 46.8395V46.8703ZM162.502 45.838C162.502 46.0845 162.409 46.2848 162.238 46.4543C162.068 46.6238 161.851 46.7009 161.619 46.7009H161.526C161.262 46.7009 161.045 46.6392 160.89 46.516C160.72 46.3927 160.642 46.2078 160.642 45.9921V45.9151C160.642 45.7302 160.704 45.6069 160.828 45.4991C160.952 45.4066 161.107 45.3296 161.293 45.2679C161.479 45.2217 161.681 45.1755 161.897 45.1447C162.114 45.1139 162.316 45.083 162.517 45.0214V45.838H162.502ZM167.258 40.4299L166.964 40.3066C166.778 40.3066 166.592 40.3375 166.437 40.3991C166.267 40.4761 166.127 40.5686 166.019 40.6764C165.895 40.7997 165.802 40.9384 165.74 41.1078C165.678 41.2773 165.632 41.4468 165.632 41.6471V42.4637H165.399L165.105 42.587L165.012 42.8489L165.105 43.1108L165.399 43.2341H165.632V47.086L165.755 47.3788L166.019 47.4712L166.282 47.3788L166.406 47.086V43.2341H166.887L167.181 43.1108L167.274 42.8489L167.181 42.587L166.887 42.4637H166.406V41.6471C166.406 41.493 166.453 41.3544 166.561 41.2465C166.654 41.1387 166.794 41.077 166.949 41.077L167.243 40.9538L167.351 40.6918L167.243 40.4299H167.258ZM170.621 46.8395L170.342 46.7009C170.187 46.7009 170.047 46.6238 169.923 46.5314C169.799 46.4389 169.737 46.3003 169.737 46.1154V43.2341H170.295L170.59 43.1108L170.683 42.8489L170.59 42.587L170.295 42.4637H169.737V40.6918L169.614 40.3991L169.35 40.3066L169.087 40.3991L168.963 40.6918V42.4637H168.606L168.312 42.587L168.204 42.8489L168.312 43.1108L168.606 43.2341H168.963V46.1308C168.963 46.3157 168.994 46.4851 169.071 46.6546C169.133 46.8241 169.242 46.9628 169.366 47.086C169.49 47.2093 169.629 47.3018 169.799 47.3788C169.954 47.4404 170.14 47.4866 170.326 47.4866L170.621 47.3634L170.714 47.1015L170.621 46.8395Z" fill="#BD202E"/>
<path d="M0 0.123047H1.71984L3.88901 7.13357L6.05818 0.123047H7.80901V8.42782H6.72443V1.09373L4.36933 8.42782H3.36221L1.00711 1.0321V8.42782H0V0.123047Z" fill="#231F20"/>
<path d="M9.60645 0H10.691V1.01691H9.60645V0ZM9.66842 2.55768H10.6136V8.42803H9.66842V2.55768Z" fill="#231F20"/>
<path d="M13.2164 6.65651C13.2164 7.41149 13.5263 7.78127 14.1461 7.78127C14.4714 7.78127 14.7348 7.71964 14.9053 7.56557C15.0757 7.4269 15.1687 7.19578 15.1687 6.90303C15.1687 6.68732 15.0757 6.51784 14.8743 6.36376C14.6729 6.20968 14.3785 6.05561 13.9911 5.87071C13.4333 5.62419 13.015 5.36226 12.7206 5.08492C12.4262 4.80758 12.2713 4.46861 12.2713 4.08342C12.2713 3.57496 12.4572 3.15895 12.8136 2.88161C13.1699 2.58886 13.6657 2.4502 14.301 2.4502C14.8898 2.4502 15.3546 2.57346 15.6645 2.83539C15.9899 3.08191 16.1448 3.39007 16.1448 3.75985V4.08342H15.0602C15.0602 3.48251 14.7658 3.17436 14.1771 3.17436C13.9137 3.17436 13.6967 3.2514 13.5263 3.39007C13.3559 3.52874 13.2784 3.72904 13.2784 3.97556C13.2784 4.20668 13.4333 4.40698 13.7277 4.57646C14.0221 4.74595 14.3165 4.90003 14.6109 5.02329C15.1067 5.2544 15.4941 5.50093 15.7729 5.76286C16.0518 6.02479 16.1913 6.34835 16.1913 6.74896C16.1913 7.96617 15.5095 8.56707 14.1616 8.56707C12.8136 8.56707 12.1318 7.93535 12.1318 6.67192H13.2164V6.65651Z" fill="#231F20"/>
<path d="M18.5773 5.79324C18.5773 6.54822 18.6703 7.07208 18.8562 7.34942C19.0421 7.62676 19.3365 7.76543 19.7394 7.76543C20.0337 7.76543 20.2661 7.67299 20.4521 7.45728C20.638 7.25698 20.731 6.97964 20.7465 6.64067H21.7846C21.7846 7.22616 21.6141 7.68839 21.2578 8.02736C20.9014 8.36633 20.4056 8.53582 19.7703 8.53582C18.8562 8.53582 18.2674 8.25848 17.973 7.7038C17.6941 7.14912 17.5547 6.42496 17.5547 5.54672C17.5547 4.37573 17.7251 3.57453 18.066 3.11229C18.4069 2.65006 18.9801 2.41895 19.7858 2.41895C20.545 2.41895 21.0873 2.63465 21.3817 3.05066C21.6916 3.46667 21.8465 4.17543 21.8465 5.16152V5.77783H18.5773V5.79324ZM18.5773 5.08448H20.8239C20.8239 4.28328 20.7 3.7286 20.4676 3.43586C20.3126 3.25096 20.0802 3.15852 19.7394 3.15852C19.321 3.15852 19.0111 3.29719 18.8407 3.58993C18.6703 3.86727 18.5773 4.37573 18.5773 5.09989" fill="#231F20"/>
<path d="M27.2072 5.79324C27.2072 6.54822 27.3001 7.07208 27.4861 7.34942C27.672 7.62676 27.9664 7.76543 28.3692 7.76543C28.6636 7.76543 28.896 7.67299 29.082 7.45728C29.2679 7.25698 29.3609 6.97964 29.3763 6.64067H30.4145C30.4145 7.22616 30.244 7.68839 29.8877 8.02736C29.5313 8.36633 29.0355 8.53582 28.4002 8.53582C27.4861 8.53582 26.8973 8.25848 26.6029 7.7038C26.324 7.14912 26.1846 6.42496 26.1846 5.54672C26.1846 4.37573 26.355 3.57453 26.6959 3.11229C27.0367 2.65006 27.61 2.41895 28.4157 2.41895C29.1749 2.41895 29.7172 2.63465 30.0116 3.05066C30.3215 3.46667 30.4764 4.17543 30.4764 5.16152V5.77783H27.2072V5.79324ZM27.2072 5.08448H29.4538C29.4538 4.28328 29.3299 3.7286 29.0975 3.43586C28.9425 3.25096 28.7101 3.15852 28.3692 3.15852C27.9509 3.15852 27.641 3.29719 27.4706 3.58993C27.3001 3.86727 27.2072 4.37573 27.2072 5.09989" fill="#231F20"/>
<path d="M33.1576 8.4284H32.197V3.59037C32.197 3.31303 32.197 2.95865 32.166 2.55805H33.1731L33.1421 3.34384C33.3126 3.00487 33.5295 2.77376 33.7929 2.6505C34.0563 2.51183 34.3817 2.4502 34.738 2.4502C35.2803 2.4502 35.6832 2.58886 35.9311 2.88161C36.179 3.15895 36.3029 3.652 36.3029 4.34535V8.44381H35.3423V4.36076C35.3423 3.60578 35.0014 3.22058 34.3197 3.22058C33.514 3.22058 33.1112 3.77526 33.1112 4.86921V8.4284H33.1576Z" fill="#231F20"/>
<path d="M44.5606 3.42067C44.7775 2.75813 45.3508 2.43457 46.2805 2.43457C47.0087 2.43457 47.5355 2.65028 47.8609 3.06629C48.1862 3.4823 48.3567 4.19105 48.3567 5.17715V5.79346H45.0874C45.0874 6.48681 45.1649 6.99526 45.3353 7.31882C45.5058 7.62698 45.8002 7.78106 46.265 7.78106C46.5749 7.78106 46.8073 7.68861 46.9777 7.50372C47.1481 7.31882 47.2566 7.02608 47.2721 6.6717H48.3102C48.3102 7.22638 48.1398 7.68861 47.7679 8.04299C47.4115 8.39737 46.9157 8.56685 46.265 8.56685C45.3198 8.56685 44.7311 8.2741 44.4986 7.6732C44.2043 8.2741 43.662 8.56685 42.8873 8.56685C41.9886 8.56685 41.3843 8.30492 41.09 7.79646C40.7956 7.28801 40.6406 6.54844 40.6406 5.57775C40.6406 4.37595 40.8266 3.55934 41.1984 3.11251C41.5703 2.66569 42.1281 2.43457 42.8873 2.43457C43.3676 2.43457 43.7549 2.51161 44.0338 2.66569C44.3127 2.81976 44.4832 3.06629 44.5451 3.42067M41.6787 5.19256C41.6787 6.17865 41.7562 6.85659 41.9266 7.22638C42.0971 7.59616 42.4224 7.78106 42.9183 7.78106C43.3831 7.78106 43.693 7.59616 43.8634 7.21097C44.0338 6.82578 44.1113 6.16324 44.1113 5.19256C44.1113 4.45298 44.0183 3.92912 43.8169 3.65178C43.6155 3.35903 43.3056 3.22036 42.9028 3.22036C42.4689 3.22036 42.159 3.37444 41.9731 3.66719C41.7872 3.95994 41.6787 4.46839 41.6787 5.20796M45.0874 5.0847H47.3341C47.3341 4.43758 47.2566 3.95994 47.1171 3.66719C46.9777 3.37444 46.6678 3.22036 46.203 3.22036C45.7847 3.22036 45.5058 3.35903 45.3353 3.65178C45.1649 3.92912 45.0874 4.42217 45.0874 5.10011" fill="#231F20"/>
<path d="M50.0303 2.55762H50.9754V6.64067C50.9754 7.44187 51.3008 7.84247 51.9515 7.84247C52.3389 7.84247 52.6178 7.7038 52.8192 7.42646C53.0051 7.14912 53.1136 6.84097 53.1136 6.502V2.55762H54.0742V7.39565C54.0742 7.6884 54.0742 8.02737 54.1052 8.42797H53.1291V7.64217C52.8347 8.24307 52.3234 8.55123 51.5952 8.55123C51.1149 8.55123 50.7275 8.42797 50.4486 8.18144C50.1697 7.93492 50.0303 7.56513 50.0303 7.08749V2.55762Z" fill="#231F20"/>
<path d="M57.6382 7.54973L59.0636 2.55762H60.0552L58.2424 8.42797H56.9874L55.2676 2.55762H56.3367L57.6382 7.54973Z" fill="#231F20"/>
<path d="M61.2324 8.42818V2.55783H62.1931V3.4823C62.441 2.78895 62.9833 2.43457 63.8044 2.43457H64.0059V3.42067C63.8354 3.38985 63.665 3.35903 63.4946 3.35903C62.6269 3.35903 62.1931 3.89831 62.1931 4.96144V8.41277H61.2324V8.42818Z" fill="#231F20"/>
<path d="M66.0977 5.79324C66.0977 6.54822 66.1906 7.07208 66.3766 7.34942C66.5625 7.62676 66.8569 7.76543 67.2597 7.76543C67.5541 7.76543 67.7865 7.67299 67.9725 7.45728C68.1584 7.25698 68.2513 6.97964 68.2668 6.64067H69.3049C69.3049 7.22616 69.1345 7.68839 68.7627 8.02736C68.4063 8.36633 67.9105 8.53582 67.2752 8.53582C66.3611 8.53582 65.7723 8.25848 65.4779 7.7038C65.199 7.14912 65.0596 6.42496 65.0596 5.54672C65.0596 4.37573 65.23 3.57453 65.5709 3.11229C65.9117 2.65006 66.485 2.41895 67.2907 2.41895C68.0964 2.41895 68.5922 2.63465 68.8866 3.05066C69.1965 3.46667 69.3514 4.17543 69.3514 5.16152V5.77783H66.0822L66.0977 5.79324ZM66.0977 5.08448H68.3443C68.3443 4.28328 68.2204 3.7286 67.9879 3.43586C67.833 3.25096 67.6006 3.15852 67.2597 3.15852C66.8414 3.15852 66.5315 3.29719 66.3611 3.58993C66.1906 3.86727 66.0977 4.37573 66.0977 5.09989" fill="#231F20"/>
<path d="M74.7741 3.328C75.053 2.7271 75.5023 2.41895 76.1531 2.41895C76.8038 2.41895 77.3151 2.66547 77.594 3.14311C77.8884 3.62075 78.0434 4.40654 78.0434 5.48509C78.0434 6.65607 77.8884 7.45728 77.563 7.88869C77.2532 8.32011 76.7728 8.53582 76.1221 8.53582C75.4713 8.53582 75.0375 8.25848 74.7741 7.71921V10.5696H73.8135V2.55761H74.7741V3.328ZM74.7741 5.45427V5.73161C74.7741 6.47118 74.8671 6.99504 75.053 7.31861C75.2389 7.62676 75.5178 7.78084 75.8742 7.78084C76.3235 7.78084 76.6179 7.61135 76.7883 7.27238C76.9433 6.93341 77.0362 6.28629 77.0362 5.34642C77.0362 4.54521 76.9433 3.97513 76.7419 3.68238C76.5559 3.37423 76.246 3.22015 75.8432 3.22015C75.4713 3.22015 75.2079 3.38963 75.0375 3.7132C74.8671 4.03676 74.7896 4.62225 74.7896 5.46968" fill="#231F20"/>
<path d="M79.7949 4.14483C79.8103 3.00466 80.4766 2.43457 81.7626 2.43457C83.0486 2.43457 83.6994 3.02006 83.6994 4.20646V7.08771C83.6994 7.54994 83.7458 7.99676 83.8388 8.41277H82.7852V7.53453C82.5063 8.19706 82.026 8.53604 81.3133 8.53604C80.2132 8.53604 79.6709 7.90432 79.6709 6.62548C79.6709 6.03998 79.8723 5.57775 80.2597 5.25419C80.647 4.93062 81.2358 4.77655 82.026 4.77655H82.7697V4.26809C82.7697 3.51311 82.4288 3.12792 81.7626 3.12792C81.4992 3.12792 81.2668 3.20496 81.0964 3.37444C80.9259 3.54393 80.833 3.79045 80.833 4.12942H79.8103L79.7949 4.14483ZM82.5373 5.50071C81.8091 5.50071 81.3133 5.59316 81.0344 5.77805C80.7555 5.96294 80.616 6.2711 80.616 6.6717C80.616 7.01067 80.6935 7.2726 80.8639 7.4729C81.0344 7.6732 81.2513 7.76565 81.5147 7.76565C81.902 7.76565 82.1964 7.61157 82.4133 7.31882C82.6303 7.02608 82.7387 6.40977 82.7387 5.50071H82.5218H82.5373Z" fill="#231F20"/>
<path d="M85.6973 8.42818V2.55783H86.6424V3.4823C86.8903 2.78895 87.4326 2.43457 88.2538 2.43457H88.4552V3.42067C88.2848 3.38985 88.1143 3.35903 87.9439 3.35903C87.0762 3.35903 86.6424 3.89831 86.6424 4.96144V8.41277H85.6973V8.42818Z" fill="#231F20"/>
</g>
<defs>
<clipPath id="clip0_528_69">
<rect width="196" height="82" fill="white"/>
</clipPath>
</defs>
</svg>
