<svg width="24" height="31" viewBox="0 0 24 31" fill="none" xmlns="http://www.w3.org/2000/svg">
<path d="M15.3455 30.995H0.486191C0.217771 30.995 0 30.7772 0 30.5088V0.486191C0 0.217771 0.217771 0 0.486191 0H22.7803C22.912 0 23.0335 0.0506447 23.1247 0.141806C23.2158 0.232968 23.2665 0.359578 23.2665 0.486191L23.1804 23.0791C23.1804 23.2057 23.1297 23.3273 23.0386 23.4184L15.695 30.8481C15.6038 30.9393 15.4772 30.995 15.3506 30.995H15.3455ZM0.97239 30.0226H15.143L22.2029 22.8816L22.284 0.977452H0.967321V30.0226H0.97239Z" fill="#FC2C2C"/>
<path d="M15.3458 30.995C15.285 30.995 15.2191 30.9848 15.1584 30.9595C14.976 30.8835 14.8545 30.7063 14.8545 30.5088V26.8116C14.8545 23.8945 16.1409 22.5929 19.0226 22.5929H22.6843C22.8818 22.5929 23.059 22.7094 23.135 22.8917C23.211 23.074 23.1705 23.2817 23.0337 23.4235L15.6901 30.8532C15.599 30.9494 15.4724 31 15.3458 31V30.995ZM19.0277 23.5703C16.698 23.5703 15.832 24.4465 15.832 26.8116V29.3237L21.5194 23.5703H19.0226H19.0277Z" fill="#FC2C2C"/>
<path d="M22.7291 0.491211H0.53125V7.99686H22.7291V0.491211Z" fill="#FC2C2C"/>
<path d="M7.16591 6.37122H6.3252V5.62673H7.16591V6.37122ZM8.87266 4.82148V6.37122H8.03194V2.10688H9.71843C10.1996 2.10688 10.5794 2.23855 10.863 2.48672C11.1365 2.73488 11.2783 3.05902 11.2783 3.47431C11.2783 3.8896 11.1365 4.20867 10.863 4.45683C10.5794 4.69486 10.1996 4.82148 9.71843 4.82148H8.87773H8.87266ZM8.87266 4.15801H9.71337C9.9514 4.15801 10.1185 4.10231 10.2451 3.96557C10.3667 3.83895 10.4224 3.66675 10.4224 3.46924C10.4224 3.27172 10.3667 3.09446 10.2451 2.96278C10.1337 2.82604 9.9514 2.76021 9.71337 2.76021H8.87266V4.15295V4.15801ZM11.8911 6.37122V2.10688H13.3396C13.8612 2.10688 14.2866 2.27907 14.6158 2.61333C14.945 2.93746 15.1172 3.36795 15.1172 3.89466V4.59357C15.1172 5.12028 14.945 5.55076 14.6158 5.87489C14.2866 6.20915 13.8562 6.37122 13.3396 6.37122H11.8911ZM12.742 2.76526V5.70777H13.2991C13.6029 5.70777 13.8359 5.60141 14.0081 5.39882C14.1803 5.19118 14.2613 4.92276 14.2613 4.5885V3.87946C14.2613 3.5452 14.1752 3.27679 14.0081 3.0742C13.8359 2.86149 13.6029 2.76021 13.2991 2.76021H12.742V2.76526ZM18.394 4.59863H16.6214V6.36615H15.7807V2.10181H18.6877V2.76021H16.6214V3.93518H18.394V4.59357V4.59863Z" fill="#FEFEFE"/>
<path d="M15.6495 18.8806C15.1785 18.8806 14.6011 18.9465 13.9275 19.0731C12.9906 18.0602 12.0131 16.5965 11.3244 15.1531C12.0081 12.236 11.6637 11.8257 11.5117 11.6333C11.3497 11.4256 11.1218 11.0863 10.8686 11.0863C10.7571 11.0863 10.4634 11.1319 10.3469 11.1724C10.043 11.2787 9.89109 11.5067 9.75942 11.8055C9.39983 12.6664 9.90123 14.12 10.4026 15.2494C9.96706 17.0067 9.23777 19.1035 8.4629 20.8153C6.52318 21.7117 5.49002 22.5929 5.40392 23.4336C5.36847 23.7375 5.44443 24.1883 5.97114 24.5884C6.11295 24.7048 6.28515 24.7606 6.46241 24.7606C6.91821 24.7606 7.36389 24.4162 7.8906 23.6717C8.27044 23.1247 8.68573 22.3903 9.11116 21.4737C10.4836 20.871 12.1803 20.319 13.6338 20.01C14.4391 20.795 15.1683 21.1951 15.7913 21.1951C16.2471 21.1951 16.6421 20.9824 16.9257 20.5722C17.2195 20.1619 17.2853 19.777 17.1233 19.463C16.9257 19.0731 16.4395 18.8806 15.6393 18.8806H15.6495ZM6.4776 23.8945C6.23957 23.7021 6.24969 23.5805 6.25982 23.5299C6.29021 23.2412 6.73589 22.7347 7.82983 22.1169C6.99924 23.6666 6.55357 23.8641 6.4776 23.8945ZM10.6812 12.0283C10.7116 12.0182 11.2231 12.6006 10.7369 13.6945C9.99745 12.9399 10.6305 12.0486 10.6812 12.0283ZM9.62774 20.3189C10.1393 19.0781 10.6305 17.6904 10.9901 16.4091C11.5675 17.4524 12.2562 18.4653 12.9501 19.2757C11.8612 19.5339 10.6964 19.9087 9.62774 20.3189ZM16.237 20.0809C16.0749 20.3037 15.7356 20.3038 15.614 20.3038C15.3405 20.3038 15.2443 20.1417 14.829 19.8176C15.1683 19.7821 15.4925 19.772 15.7558 19.772C16.2116 19.772 16.2876 19.8378 16.3534 19.8682C16.3433 19.9037 16.3129 19.9746 16.242 20.086L16.237 20.0809Z" fill="#FC2C2C"/>
</svg>
