<svg width="24" height="24" viewBox="0 0 24 24" fill="none" xmlns="http://www.w3.org/2000/svg">
<path d="M3.33325 16.2667C3.33325 15.788 3.72127 15.4 4.19992 15.4H19.7999C20.2786 15.4 20.6666 15.788 20.6666 16.2667V17.1334C20.6666 17.612 20.2786 18 19.7999 18H4.19992C3.72127 18 3.33325 17.612 3.33325 17.1334V16.2667Z" fill="#066938"/>
<path fill-rule="evenodd" clip-rule="evenodd" d="M9.37298 5.4371C9.47062 5.50625 9.56735 5.57475 9.66431 5.63508C9.83654 5.74225 10.0437 5.80476 10.2666 5.80476H13.7333C13.9562 5.80476 14.1634 5.74225 14.3356 5.63508C14.4325 5.57475 14.5293 5.50625 14.6269 5.4371C14.9311 5.22166 15.2442 5 15.6 5H18.9333C19.4119 5 19.8 5.3603 19.8 5.80476L19.8 14.1H4.19995L4.19995 5.80476C4.19995 5.3603 4.58797 5 5.06662 5H8.39994C8.75574 5 9.06876 5.22166 9.37298 5.4371ZM19.8 15.4L19.8 15.4619C19.8 15.9064 19.4119 16.2667 18.9333 16.2667H5.06662C4.58797 16.2667 4.19995 15.9064 4.19995 15.4619L4.19995 15.4H19.8Z" fill="#066938"/>
</svg>
