<svg width="24" height="24" viewBox="0 0 24 24" fill="none" xmlns="http://www.w3.org/2000/svg">
<path fill-rule="evenodd" clip-rule="evenodd" d="M5.59766 9.34146C5.59766 5.83377 8.46956 3 12.0001 3C15.5306 3 18.4025 5.83377 18.4025 9.34146C18.4025 11.5231 17.1303 13.6762 15.782 15.2436C15.0996 16.0367 14.3754 16.7063 13.7366 17.1826C13.4177 17.4203 13.1112 17.6165 12.8346 17.7558C12.5752 17.8864 12.2791 18 12.0001 18C11.7211 18 11.425 17.8864 11.1656 17.7558C10.889 17.6165 10.5825 17.4203 10.2636 17.1826C9.62476 16.7063 8.90055 16.0367 8.21822 15.2436C6.86989 13.6762 5.59766 11.5231 5.59766 9.34146ZM12.0001 11.2317C10.7878 11.2317 9.80497 10.2489 9.80497 9.03659C9.80497 7.82425 10.7878 6.84146 12.0001 6.84146C13.2124 6.84146 14.1952 7.82425 14.1952 9.03659C14.1952 10.2489 13.2124 11.2317 12.0001 11.2317Z" fill="#066938"/>
</svg>
