<svg width="203" height="227" viewBox="0 0 203 227" fill="none" xmlns="http://www.w3.org/2000/svg">
<g clip-path="url(#clip0_1_270)">
<path d="M57.6646 85.7221L106.224 75.3364L119.231 27.3532L72.8755 43.1884L57.6646 85.7221Z" fill="#DADD46"/>
<path d="M92.2959 139.986H179.064C182.55 139.986 185.495 137.456 185.947 134.059L195.25 63.1991L108.645 78.8396L92.2959 139.986Z" fill="#DADD46"/>
<path d="M38.2622 139.986H88.4296L104.959 79.5296L56.2553 89.6677L38.2622 139.986Z" fill="#DADD46"/>
<path d="M17.7222 93.8786L54.9187 86.2883L70.1838 44.1261L36.8353 55.6265C34.559 56.405 32.7344 58.1035 31.8131 60.2974L17.7402 93.8963L17.7222 93.8786Z" fill="#DADD46"/>
<path d="M3.2337 139.986H35.4803L53.4914 90.1985L16.2949 97.2756L0.252923 135.616C-0.614212 137.704 0.939405 139.986 3.2337 139.986Z" fill="#DADD46"/>
<path d="M138.868 20.453L122.754 26.1501L109.909 74.5933L160.619 64.703C154.187 63.4645 148.099 61.0582 143.222 56.8119C129.582 44.94 134.315 29.3702 138.868 20.453Z" fill="#DADD46"/>
<path d="M197.526 0.230011L152.164 15.8528C147.287 22.5231 140.404 39.2075 152.164 47.5055C160.583 53.4503 173.355 53.3264 197.346 49.3455L202.964 4.54708C203.361 1.57467 200.417 -0.760792 197.526 0.247704V0.230011Z" fill="#FFD600"/>
<path d="M48.9207 182.52C48.9207 183.192 48.5052 183.546 47.6923 183.546H42.2727C41.6585 183.546 40.9901 183.334 40.2855 182.909C39.581 182.485 39.0209 181.972 38.6235 181.37L34.4504 174.912C33.4568 173.337 32.4632 172.152 31.4516 171.356C30.4399 170.56 29.2295 170.17 27.8024 170.17H22.708V181.441C22.708 182.042 22.4912 182.555 22.0576 182.962C21.624 183.369 21.1001 183.582 20.4859 183.582H16.0419C15.4276 183.582 14.9037 183.369 14.4521 182.927C14.0005 182.485 13.7837 181.972 13.7837 181.37V152.566C13.7837 151.964 14.0005 151.434 14.4521 150.991C14.8857 150.549 15.4276 150.319 16.0419 150.319H20.4859C21.1001 150.319 21.624 150.549 22.0576 150.991C22.4912 151.434 22.708 151.964 22.708 152.566V163.659H27.8024C29.1934 163.659 30.4038 163.288 31.4516 162.545C32.4994 161.802 33.493 160.599 34.4504 158.953L38.1177 152.548C38.9487 151.062 40.0868 150.319 41.532 150.301H47.0058C47.7646 150.301 48.1439 150.62 48.1439 151.274C48.1439 151.628 48.0175 152.053 47.7465 152.548L42.6159 161.66C41.8753 162.987 41.0443 164.084 40.1229 164.951C39.2016 165.818 37.9912 166.419 36.5099 166.773C37.5576 166.986 38.6235 167.623 39.7074 168.702C40.7913 169.781 41.7669 170.931 42.5979 172.17L48.5052 181.388C48.7762 181.83 48.9027 182.219 48.9027 182.538L48.9207 182.52Z" fill="#009871"/>
<path d="M53.5272 181.865C51.4316 180.45 50.3838 178.433 50.3838 175.832C50.3838 173.231 51.4316 171.25 53.5272 169.852C55.6227 168.454 58.3145 167.764 61.6024 167.764H69.4427C69.4427 165.959 69.0633 164.703 68.2865 163.978C67.5097 163.27 66.1548 162.916 64.2218 162.916C62.2888 162.916 60.9339 163.376 60.1571 164.314C59.3803 165.252 58.4229 165.712 57.2847 165.712H53.762C53.3284 165.712 52.9852 165.57 52.7142 165.305C52.4432 165.039 52.2987 164.703 52.2987 164.296C52.2987 159.855 56.5983 157.644 65.1974 157.644C68.9549 157.644 71.9718 158.475 74.23 160.121C76.5062 161.766 77.6444 164.314 77.6444 167.764V182.113C77.6444 182.538 77.5179 182.874 77.2469 183.139C76.9759 183.405 76.6327 183.529 76.1991 183.529H71.6286C71.195 183.529 70.8518 183.387 70.5808 183.122C70.3098 182.856 70.1834 182.52 70.1834 182.113V181.388C67.6904 183.139 64.818 184.006 61.5662 183.989C58.3145 183.989 55.6408 183.263 53.5452 181.848L53.5272 181.865ZM59.561 173.815C58.9287 174.346 58.6035 175.018 58.6035 175.85C58.6035 176.681 58.9287 177.371 59.5971 177.92C60.2655 178.468 61.2049 178.734 62.4153 178.734C64.836 178.734 67.1845 178.044 69.4427 176.646V173.037H62.1804C61.0785 173.037 60.2113 173.302 59.561 173.833V173.815Z" fill="#009871"/>
<path d="M102.448 155.715L99.1783 155.326C96.0349 155.326 93.9935 155.733 93.0541 156.565C92.1147 157.396 91.627 159.095 91.627 161.695V162.067H100.19C100.623 162.067 100.967 162.209 101.238 162.474C101.509 162.739 101.653 163.093 101.653 163.5V166.26C101.653 166.685 101.509 167.021 101.238 167.286C100.967 167.552 100.605 167.676 100.19 167.676H91.627V182.113C91.627 182.538 91.4824 182.874 91.2115 183.139C90.9405 183.405 90.5972 183.529 90.1817 183.529H84.8886C84.455 183.529 84.1118 183.405 83.8408 183.139C83.5698 182.874 83.4434 182.538 83.4434 182.113V161.695C83.4434 157.378 84.437 154.335 86.4422 152.531C88.4475 150.726 91.9702 149.824 96.9923 149.824C99.5757 149.824 101.382 149.912 102.412 150.107C103.442 150.284 104.092 150.514 104.345 150.797C104.616 151.062 104.742 151.381 104.742 151.734V154.282C104.742 154.707 104.598 155.043 104.327 155.308C104.056 155.574 103.713 155.715 103.297 155.715H102.43H102.448Z" fill="#009871"/>
<path d="M107.669 181.865C105.574 180.45 104.526 178.433 104.526 175.832C104.526 173.231 105.574 171.25 107.669 169.852C109.765 168.454 112.457 167.764 115.744 167.764H123.585C123.585 165.959 123.205 164.703 122.429 163.978C121.652 163.27 120.297 162.916 118.364 162.916C116.431 162.916 115.076 163.376 114.299 164.314C113.522 165.252 112.565 165.712 111.427 165.712H107.904C107.471 165.712 107.127 165.57 106.856 165.305C106.585 165.039 106.441 164.703 106.441 164.296C106.441 159.855 110.74 157.644 119.339 157.644C123.097 157.644 126.114 158.475 128.372 160.121C130.648 161.766 131.786 164.314 131.786 167.764V182.113C131.786 182.538 131.66 182.874 131.389 183.139C131.118 183.405 130.775 183.529 130.341 183.529H125.771C125.337 183.529 124.994 183.387 124.723 183.122C124.452 182.856 124.325 182.52 124.325 182.113V181.388C121.832 183.139 118.96 184.006 115.708 183.989C112.457 183.989 109.783 183.263 107.687 181.848L107.669 181.865ZM113.703 173.815C113.071 174.346 112.746 175.018 112.746 175.85C112.746 176.681 113.071 177.371 113.739 177.92C114.408 178.468 115.347 178.734 116.557 178.734C118.978 178.734 121.327 178.044 123.585 176.646V173.037H116.323C115.221 173.037 114.353 173.302 113.703 173.833V173.815Z" fill="#009871"/>
<path d="M146.654 181.405L152.598 159.342C154.206 153.327 159.445 150.319 168.315 150.301H181.069C181.647 150.301 182.135 150.514 182.532 150.956C182.911 151.381 183.11 151.894 183.11 152.46V181.405C183.11 182.007 182.893 182.52 182.442 182.927C182.008 183.334 181.466 183.546 180.852 183.546H176.408C175.758 183.546 175.234 183.334 174.818 182.927C174.403 182.52 174.186 181.989 174.186 181.37V175.531H157.367L155.777 181.37C155.615 182.007 155.271 182.52 154.711 182.927C154.151 183.334 153.573 183.546 152.959 183.546H148.298C147.684 183.546 147.232 183.369 146.979 183.033C146.708 182.679 146.582 182.378 146.582 182.113C146.582 181.848 146.618 181.618 146.672 181.423L146.654 181.405ZM159.101 168.95H174.168V156.848H167.429C165.912 156.848 164.593 157.272 163.473 158.104C162.353 158.953 161.576 160.085 161.197 161.501L159.119 168.932L159.101 168.95Z" fill="#009871"/>
<path d="M130.666 39.1367C135.291 37.7213 124.235 59.1651 121.218 60.439C118.201 61.7129 64.8723 85.1913 60.338 86.8014C55.8036 88.4115 58.8205 82.9443 60.338 80.7858C61.6929 78.8573 126.511 40.4106 130.666 39.1367Z" fill="#009871"/>
<path d="M61.1869 82.962C59.6513 83.3867 55.6589 85.4744 55.7673 87.4737C55.8396 88.9599 112.294 122.913 130.847 139.632C138.308 146.356 134.153 157.679 138.506 158.228C142.86 158.776 159.083 130.998 159.101 127.495C159.119 123.992 63.5354 82.3251 61.1869 82.9797V82.962Z" fill="#009871"/>
<path d="M79.5412 34.6073C77.8431 34.0588 61.2772 38.7652 58.8564 40.1452C56.4357 41.5252 9.15874 148.585 15.4274 146.356C21.6961 144.144 83.8408 35.9874 79.5412 34.6073Z" fill="#009871"/>
<path d="M51.703 227C47.6744 227 41.6226 226.009 41.6226 220.277C41.6226 215.004 44.3143 209.802 53.8528 209.289C53.5818 207.644 53.3831 205.008 53.0398 203.168C56.4723 201.593 57.8091 200.337 57.8091 200.337C58.2788 206.724 58.2788 213.376 58.7485 219.834C58.7485 220.489 58.5498 227.018 51.6849 227.018L51.703 227ZM50.7636 222.966C53.7263 222.966 54.9909 221.126 54.9909 219.286L54.4489 213.624H51.8295C48.3971 213.624 45.6511 215.199 45.6511 219.286C45.6511 221.391 47.1325 222.966 50.6913 222.966H50.7636ZM47.6744 194.799C47.6744 196.055 48.6861 197.028 49.9687 197.028C51.2514 197.028 52.263 196.037 52.263 194.799C52.263 193.613 51.2514 192.623 49.9687 192.623C48.6861 192.623 47.6744 193.613 47.6744 194.799ZM53.9973 194.799C53.9973 196.055 55.009 197.028 56.2735 197.028C57.5381 197.028 58.5678 196.037 58.5678 194.799C58.5678 193.613 57.5562 192.623 56.2735 192.623C54.9909 192.623 53.9973 193.613 53.9973 194.799Z" fill="#009871"/>
<path d="M65.9565 222.966H73.291C69.2624 221.975 67.9798 218.95 67.9798 216.844C67.9798 214.208 71.4122 212.173 75.5853 212.173C75.9827 212.173 76.3982 212.173 76.7956 212.244L80.6978 214.615C75.1878 214.615 72.4961 215.8 72.4961 218.507C72.4961 220.807 74.2484 222.984 78.1505 222.984H80.3726C80.4448 224.045 80.5171 226.08 80.5713 227H64.5112L65.9926 222.984L65.9565 222.966Z" fill="#009871"/>
<path d="M87.4003 227C87.0029 213.235 86.5332 200.39 86.1177 186.642C87.5268 185.917 88.6107 185.386 89.8753 184.732L91.1579 222.789H91.6999V227H87.4003Z" fill="#009871"/>
<path d="M90.9771 222.771H111.355L111.752 217.959C110 218.684 108.247 219.02 107.037 219.02C102.34 219.02 98.438 215.27 98.438 210.599C98.438 205.928 102.34 202.23 107.037 202.23C111.734 202.23 115.582 205.981 115.636 210.599L115.094 222.771H115.907V226.982H90.959V222.771H90.9771ZM107.037 215.199C109.602 215.199 111.752 213.093 111.752 210.599C111.752 208.104 109.602 205.981 107.037 205.981C104.472 205.981 102.34 208.086 102.34 210.599C102.34 213.111 104.418 215.199 107.037 215.199ZM106.567 193.277C107.904 193.277 109.06 194.339 109.06 195.648C109.06 197.028 107.922 198.143 106.567 198.143C105.213 198.143 104.074 197.028 104.074 195.648C104.074 194.268 105.213 193.277 106.567 193.277Z" fill="#009871"/>
<path d="M114.914 222.771H156.337C156.337 220.206 156.193 218.295 152.363 218.295H122.772C131.985 214.208 137.098 197.612 137.098 187.474C137.098 186.554 137.098 185.705 136.971 184.838C139.32 186.483 140.331 187.209 142.626 188.783C142.355 195.294 137.441 208.21 131.19 214.066H153.989C157.421 214.066 160.113 216.632 160.113 219.534V226.982H114.932V222.771H114.914Z" fill="#009871"/>
<path d="M157.584 43.4361L154.007 44.1261L157.819 22.3992L165.135 19.993C165.84 19.763 166.508 19.6391 167.14 19.6391C167.773 19.6391 168.351 19.7276 168.875 19.9399C169.398 20.1522 169.868 20.453 170.284 20.8599C170.699 21.2669 171.024 21.7623 171.277 22.3461C171.53 22.93 171.693 23.5846 171.765 24.3277C171.837 25.0709 171.801 25.867 171.675 26.7517C171.458 28.061 171.042 29.3348 170.428 30.6087C169.796 31.8826 169.055 33.0327 168.152 34.0765C167.249 35.1204 166.309 35.9874 165.243 36.6951C164.178 37.4028 163.148 37.8628 162.082 38.0928L158.343 38.9244L157.566 43.4538L157.584 43.4361ZM160.655 25.5839L159.137 34.4304L162.877 33.4927C163.401 33.3688 163.925 33.1211 164.431 32.7673C164.936 32.4134 165.424 31.9711 165.84 31.458C166.255 30.9449 166.635 30.3787 166.942 29.7595C167.249 29.1402 167.447 28.5033 167.556 27.8663C167.664 27.2294 167.646 26.6632 167.538 26.1678C167.429 25.6724 167.213 25.2655 166.924 24.947C166.634 24.6285 166.273 24.4339 165.84 24.3454C165.406 24.257 164.936 24.2924 164.394 24.4516L160.655 25.5839Z" fill="#009871"/>
<path d="M193.931 10.5273L181.828 38.7652L177.058 39.6852L173.608 17.2152L178.576 15.5875L180.69 30.7149L188.042 12.4735L193.931 10.545V10.5273Z" fill="#009871"/>
<path d="M181.304 61.7483L184.844 55.0249C185.332 54.0872 184.483 53.008 183.435 53.2557L179.262 54.1934C178.648 54.3349 178.214 54.9011 178.287 55.538L178.901 61.3236C179.027 62.5444 180.707 62.8629 181.286 61.7659L181.304 61.7483Z" fill="#FFD600"/>
<path d="M144.884 53.1495L150.755 50.814C151.405 50.5486 151.55 49.7171 151.008 49.2747L148.497 47.1339C148.081 46.78 147.449 46.8508 147.142 47.2754L143.782 51.7518C143.222 52.4949 144.017 53.4857 144.884 53.1495Z" fill="#FFD600"/>
<path d="M139.988 27.7071H143.999C144.45 27.6894 144.83 27.3709 144.92 26.9286L145.372 24.5401C145.516 23.7793 144.685 23.1954 143.999 23.5669L139.536 25.9732C138.687 26.4332 139.031 27.6894 139.988 27.6894V27.7071Z" fill="#FFD600"/>
</g>
<defs>
<clipPath id="clip0_1_270">
<rect width="203" height="227" fill="white"/>
</clipPath>
</defs>
</svg>
