<svg width="24" height="24" viewBox="0 0 24 24" fill="none" xmlns="http://www.w3.org/2000/svg">
<path fill-rule="evenodd" clip-rule="evenodd" d="M2.93921 8.09643C2.93921 5.41982 5.10903 3.25 7.78564 3.25H16.2142C18.8908 3.25 21.0606 5.41982 21.0606 8.09643V13.1536C21.0606 15.8302 18.8908 18 16.2142 18H7.78564C5.10903 18 2.93921 15.8302 2.93921 13.1536V8.09643ZM7.39278 7.49643C7.06141 7.2479 6.59131 7.31506 6.34278 7.64643C6.09425 7.9778 6.16141 8.4479 6.49278 8.69643L10.3499 11.5893C11.3277 12.3226 12.6721 12.3226 13.6499 11.5893L17.5071 8.69643C17.8384 8.4479 17.9056 7.9778 17.6571 7.64643C17.4085 7.31506 16.9384 7.2479 16.6071 7.49643L12.7499 10.3893C12.3055 10.7226 11.6944 10.7226 11.2499 10.3893L7.39278 7.49643Z" fill="#066938"/>
</svg>
